<?xml version="1.0" encoding="utf-8"?>
<!-- Generator: Adobe Illustrator 24.0.0, SVG Export Plug-In . SVG Version: 6.00 Build 0)  -->
<svg version="1.1" id="Layer_1" xmlns="http://www.w3.org/2000/svg" xmlns:xlink="http://www.w3.org/1999/xlink" x="0px" y="0px"
	 viewBox="0 0 157.78 122.06" style="enable-background:new 0 0 157.78 122.06;" xml:space="preserve">
<style type="text/css">
	.st0{fill:#004575;}
	.st1{fill:#0079C2;}
	.st2{fill:#FFFFFF;}
	.st3{opacity:0.3;}
	.st4{opacity:0.8;fill:#0079C2;}
	.st5{opacity:0.5;fill:#FFFFFF;}
</style>
<g>
	<path class="st0" d="M69.41,115.32c0.32,0.17,0.57,0.4,0.74,0.68c0.17,0.29,0.25,0.61,0.25,0.96c0,0.4-0.09,0.78-0.27,1.15
		c-0.18,0.37-0.48,0.79-0.89,1.24c-0.41,0.45-0.99,1.01-1.73,1.69h3.05l-0.12,0.88h-4.18v-0.83c0.84-0.81,1.47-1.45,1.89-1.91
		c0.42-0.46,0.71-0.85,0.88-1.17c0.17-0.33,0.25-0.65,0.25-0.98c0-0.34-0.1-0.6-0.29-0.8c-0.2-0.2-0.46-0.29-0.8-0.29
		c-0.29,0-0.54,0.05-0.75,0.16c-0.2,0.11-0.41,0.29-0.62,0.54l-0.7-0.55c0.27-0.34,0.57-0.6,0.92-0.77
		c0.34-0.17,0.75-0.26,1.23-0.26C68.7,115.07,69.09,115.16,69.41,115.32z"/>
	<path class="st0" d="M76.09,115.97c0.39,0.6,0.59,1.46,0.59,2.59c0,1.12-0.2,1.99-0.59,2.59c-0.39,0.6-0.96,0.91-1.7,0.91
		c-0.75,0-1.32-0.3-1.71-0.91c-0.39-0.6-0.58-1.47-0.58-2.59c0-1.12,0.19-1.99,0.58-2.59c0.39-0.6,0.96-0.9,1.71-0.9
		C75.13,115.07,75.7,115.37,76.09,115.97z M73.49,116.54c-0.2,0.42-0.3,1.09-0.3,2.02c0,0.94,0.1,1.61,0.3,2.04
		c0.2,0.42,0.5,0.63,0.89,0.63c0.39,0,0.69-0.21,0.89-0.63c0.2-0.42,0.3-1.1,0.3-2.04c0-0.93-0.1-1.6-0.3-2.02
		c-0.2-0.42-0.5-0.63-0.89-0.63C73.99,115.91,73.7,116.12,73.49,116.54z M74.84,118.12c0.12,0.12,0.19,0.27,0.19,0.45
		c0,0.18-0.06,0.33-0.19,0.46c-0.12,0.12-0.28,0.19-0.46,0.19c-0.18,0-0.33-0.06-0.45-0.19c-0.12-0.12-0.18-0.28-0.18-0.46
		c0-0.17,0.06-0.32,0.18-0.45c0.12-0.12,0.27-0.18,0.45-0.18C74.56,117.94,74.72,118,74.84,118.12z"/>
	<path class="st1" d="M81.1,115.32c0.32,0.17,0.57,0.4,0.74,0.68c0.17,0.29,0.25,0.61,0.25,0.96c0,0.4-0.09,0.78-0.27,1.15
		c-0.18,0.37-0.48,0.79-0.89,1.24c-0.41,0.45-0.99,1.01-1.73,1.69h3.05l-0.12,0.88h-4.18v-0.83c0.84-0.81,1.47-1.45,1.89-1.91
		c0.42-0.46,0.71-0.85,0.88-1.17c0.17-0.33,0.25-0.65,0.25-0.98c0-0.34-0.1-0.6-0.29-0.8c-0.19-0.2-0.46-0.29-0.8-0.29
		c-0.29,0-0.54,0.05-0.75,0.16c-0.21,0.11-0.41,0.29-0.62,0.54l-0.7-0.55c0.27-0.34,0.57-0.6,0.92-0.77
		c0.34-0.17,0.75-0.26,1.23-0.26C80.4,115.07,80.78,115.16,81.1,115.32z"/>
	<path class="st1" d="M87.78,115.97c0.39,0.6,0.58,1.46,0.58,2.59c0,1.12-0.19,1.99-0.58,2.59c-0.39,0.6-0.96,0.91-1.71,0.91
		s-1.32-0.3-1.71-0.91c-0.39-0.6-0.58-1.47-0.58-2.59c0-1.12,0.19-1.99,0.58-2.59c0.39-0.6,0.96-0.9,1.71-0.9
		S87.39,115.37,87.78,115.97z M85.19,116.54c-0.2,0.42-0.3,1.09-0.3,2.02c0,0.94,0.1,1.61,0.3,2.04c0.2,0.42,0.5,0.63,0.89,0.63
		c0.39,0,0.69-0.21,0.89-0.63c0.2-0.42,0.3-1.1,0.3-2.04c0-0.93-0.1-1.6-0.3-2.02c-0.2-0.42-0.5-0.63-0.89-0.63
		C85.68,115.91,85.39,116.12,85.19,116.54z M86.53,118.12c0.12,0.12,0.19,0.27,0.19,0.45c0,0.18-0.06,0.33-0.19,0.46
		c-0.12,0.12-0.28,0.19-0.46,0.19c-0.18,0-0.33-0.06-0.45-0.19c-0.12-0.12-0.18-0.28-0.18-0.46c0-0.17,0.06-0.32,0.18-0.45
		c0.12-0.12,0.27-0.18,0.45-0.18C86.26,117.94,86.41,118,86.53,118.12z"/>
</g>
<path class="st2" d="M156.28,44.78c0,23.9-19.38,43.28-43.28,43.28S69.72,68.68,69.72,44.78C69.72,20.88,89.09,1.5,113,1.5
	S156.28,20.88,156.28,44.78z"/>
<path class="st1" d="M113,89.56c-24.69,0-44.78-20.09-44.78-44.78S88.31,0,113,0s44.78,20.09,44.78,44.78S137.69,89.56,113,89.56z
	 M113,3C89.96,3,71.22,21.74,71.22,44.78S89.96,86.56,113,86.56s41.78-18.74,41.78-41.78S136.04,3,113,3z"/>
<ellipse transform="matrix(0.9692 -0.2462 0.2462 0.9692 -9.661 12.2786)" class="st1" cx="44.28" cy="44.78" rx="44.28" ry="44.28"/>
<g class="st3">
	<g>
		<path class="st2" d="M82,76.4c-0.24-0.24-0.48-0.47-0.71-0.71c-8.1-8.32-12.56-19.29-12.56-30.9c0-11.83,4.61-22.95,12.97-31.31
			l1.41,1.41c-7.99,7.98-12.38,18.6-12.38,29.9c0,11.08,4.26,21.56,11.99,29.5c0.22,0.23,0.46,0.46,0.69,0.69L82,76.4z"/>
	</g>
</g>
<g class="st3">
	<g>
		<path class="st2" d="M76.5,23.44l-1.73-1c0.17-0.29,0.34-0.58,0.52-0.87c6.09-9.89,15.64-16.89,26.9-19.72
			c11.47-2.89,23.38-1.13,33.53,4.93l-1.03,1.72C125,2.7,113.63,1.02,102.68,3.78C91.93,6.48,82.81,13.17,77,22.61
			C76.83,22.88,76.66,23.16,76.5,23.44z"/>
	</g>
</g>
<g class="st3">
	<g>
		<path class="st2" d="M153.02,31.14c-3.64-10.69-11.23-19.32-21.36-24.3c-9.95-4.89-21.23-5.69-31.77-2.26
			c-0.3,0.1-0.61,0.2-0.91,0.31L98.3,3.01c0.32-0.11,0.64-0.22,0.96-0.33c11.04-3.6,22.86-2.76,33.28,2.36
			c10.61,5.22,18.56,14.26,22.37,25.45L153.02,31.14z"/>
	</g>
</g>
<g class="st3">
	<g>
		<path class="st2" d="M156.94,50.27l-1.98-0.25c1.4-11.21-1.65-22.29-8.58-31.2c-6.81-8.75-16.6-14.41-27.58-15.93
			c-0.32-0.04-0.64-0.08-0.96-0.12l0.21-1.99c0.33,0.04,0.66,0.08,0.99,0.12c11.52,1.6,21.78,7.52,28.91,16.68
			C155.21,26.93,158.4,38.54,156.94,50.27z"/>
	</g>
</g>
<g class="st3">
	<g>
		<path class="st2" d="M113,89.08c-5.62,0-11.24-1.08-16.59-3.24C85.44,81.4,76.85,72.96,72.24,62.08l1.84-0.78
			c4.41,10.4,12.61,18.45,23.08,22.69c10.27,4.15,21.59,4.13,31.85-0.07c0.29-0.12,0.59-0.25,0.89-0.38l0.81,1.83
			c-0.31,0.14-0.62,0.27-0.94,0.4C124.36,87.98,118.68,89.08,113,89.08z"/>
	</g>
</g>
<g class="st3">
	<g>
		<path class="st2" d="M116.38,88.93l-0.15-1.99c11.26-0.86,21.51-6.06,28.87-14.63c7.21-8.41,10.8-19.14,10.11-30.2
			c-0.02-0.32-0.04-0.64-0.07-0.96l1.99-0.19c0.03,0.34,0.06,0.68,0.08,1.02c0.73,11.59-3.03,22.82-10.58,31.63
			C138.9,82.59,128.17,88.03,116.38,88.93z"/>
	</g>
</g>
<g class="st3">
	<g>
		<path class="st2" d="M44.25,88.22c-6.38,0-12.72-1.42-18.63-4.23C15.15,79,7.24,70.24,3.36,59.31l1.88-0.67
			c3.7,10.42,11.24,18.79,21.23,23.54c9.8,4.67,20.86,5.31,31.14,1.82c0.3-0.1,0.6-0.21,0.89-0.32l0.7,1.87
			c-0.31,0.12-0.63,0.23-0.95,0.34C53.69,87.45,48.96,88.22,44.25,88.22z"/>
	</g>
</g>
<g class="st3">
	<g>
		<path class="st2" d="M8.38,69.21c-0.19-0.27-0.37-0.55-0.55-0.83c-6.19-9.56-8.36-20.97-6.13-32.13
			c2.28-11.37,8.85-21.18,18.5-27.6l1.11,1.66C12.11,16.44,5.84,25.8,3.67,36.64C1.53,47.29,3.61,58.17,9.51,67.29
			c0.17,0.26,0.35,0.53,0.53,0.79L8.38,69.21z"/>
	</g>
</g>
<g class="st3">
	<g>
		<path class="st2" d="M3.09,40.39l-1.99-0.2c0.03-0.33,0.07-0.66,0.11-0.99c1.47-11.29,7.19-21.4,16.11-28.47
			c9.1-7.2,20.45-10.43,31.97-9.08l-0.23,1.99c-10.99-1.28-21.82,1.8-30.49,8.66C10.06,19.04,4.6,28.68,3.2,39.45
			C3.16,39.76,3.13,40.08,3.09,40.39z"/>
	</g>
</g>
<g class="st3">
	<g>
		<path class="st2" d="M9.17,22.81l-1.7-1.05C7.64,21.48,7.82,21.2,8,20.92c6.26-9.51,15.82-16.1,26.94-18.54
			C46.27-0.12,57.89,1.95,67.66,8.2l-1.08,1.69c-9.32-5.96-20.41-7.93-31.21-5.55c-10.6,2.34-19.73,8.62-25.7,17.69
			C9.5,22.28,9.33,22.54,9.17,22.81z"/>
	</g>
</g>
<g class="st3">
	<g>
		<path class="st2" d="M44.32,88.2c-0.63,0-1.27-0.01-1.91-0.04l0.09-2c11.06,0.48,21.63-3.38,29.78-10.86
			c8-7.34,12.74-17.36,13.35-28.2c0.02-0.31,0.03-0.63,0.04-0.94l2,0.05c-0.01,0.33-0.02,0.67-0.04,1
			c-0.64,11.37-5.61,21.86-14,29.56C65.56,84.19,55.21,88.2,44.32,88.2z"/>
	</g>
</g>
<g class="st3">
	<g>
		<path class="st2" d="M84.8,60.4l-1.87-0.72c3.98-10.32,3.7-21.58-0.78-31.69c-4.4-9.93-12.38-17.62-22.46-21.66
			C59.4,6.22,59.1,6.1,58.81,6l0.69-1.88c0.31,0.11,0.62,0.24,0.93,0.36C71,8.71,79.36,16.78,83.97,27.18
			C88.67,37.78,88.96,49.58,84.8,60.4z"/>
	</g>
</g>
<path class="st4" d="M134.85,24.43c0-2.8-2.27-5.08-5.08-5.08H96.23c-2.8,0-5.08,2.27-5.08,5.08c0,2.8,2.27,5.08,5.08,5.08h33.54
	C132.58,29.51,134.85,27.24,134.85,24.43z M92.7,24.43c0-1.86,1.51-3.37,3.37-3.37c1.86,0,3.37,1.51,3.37,3.37
	c0,1.86-1.51,3.37-3.37,3.37C94.21,27.81,92.7,26.3,92.7,24.43z M126.37,24.43c0-1.86,1.51-3.37,3.37-3.37s3.37,1.51,3.37,3.37
	c0,1.86-1.51,3.37-3.37,3.37S126.37,26.3,126.37,24.43z"/>
<path class="st4" d="M134.85,64.84c0-2.8-2.27-5.08-5.08-5.08H96.23c-2.8,0-5.08,2.28-5.08,5.08c0,2.8,2.27,5.08,5.08,5.08h33.54
	C132.58,69.92,134.85,67.65,134.85,64.84z M92.7,64.84c0-1.86,1.51-3.37,3.37-3.37c1.86,0,3.37,1.51,3.37,3.37
	c0,1.86-1.51,3.37-3.37,3.37C94.21,68.22,92.7,66.71,92.7,64.84z M126.37,64.84c0-1.86,1.51-3.37,3.37-3.37s3.37,1.51,3.37,3.37
	c0,1.86-1.51,3.37-3.37,3.37S126.37,66.71,126.37,64.84z"/>
<path class="st4" d="M133.36,20.84c-1.98-1.98-5.2-1.98-7.18,0L92.64,61.25c-1.98,1.98-1.98,5.2,0,7.18s5.2,1.98,7.18,0l33.54-40.41
	C135.34,26.04,135.34,22.83,133.36,20.84z M93.74,67.33c-1.32-1.32-1.32-3.45,0-4.77c1.32-1.32,3.45-1.32,4.77,0
	c1.32,1.32,1.32,3.45,0,4.77C97.19,68.65,95.05,68.65,93.74,67.33z M127.37,26.84c-1.32-1.32-1.32-3.45,0-4.77
	c1.32-1.32,3.45-1.32,4.77,0c1.32,1.32,1.32,3.45,0,4.77C130.82,28.15,128.68,28.15,127.37,26.84z"/>
<g>
	<path class="st5" d="M24.93,19.24c-2.8,0-5.08,2.27-5.08,5.08v40.41c0,2.8,2.27,5.08,5.08,5.08c2.8,0,5.08-2.28,5.08-5.08V24.32
		C30,21.51,27.73,19.24,24.93,19.24z M24.93,68.25c-1.86,0-3.37-1.51-3.37-3.37c0-1.86,1.51-3.37,3.37-3.37
		c1.86,0,3.37,1.51,3.37,3.37C28.3,66.74,26.79,68.25,24.93,68.25z M24.93,27.72c-1.86,0-3.37-1.51-3.37-3.38
		c0-1.86,1.51-3.37,3.37-3.37c1.86,0,3.37,1.51,3.37,3.37C28.3,26.21,26.79,27.72,24.93,27.72z"/>
	<path class="st5" d="M21.33,20.84c-1.98,1.98-1.98,5.2,0,7.18l20.23,20.23c1.98,1.98,5.2,1.98,7.18,0c1.98-1.98,1.98-5.2,0-7.18
		L28.52,20.84C26.53,18.86,23.32,18.86,21.33,20.84z M47.65,47.16c-1.32,1.32-3.45,1.32-4.77,0c-1.32-1.32-1.32-3.45,0-4.77
		c1.32-1.32,3.45-1.32,4.77,0C48.96,43.71,48.96,45.84,47.65,47.16z M27.33,26.84c-1.32,1.32-3.45,1.32-4.77,0
		c-1.32-1.32-1.32-3.45,0-4.77c1.32-1.32,3.45-1.32,4.77,0C28.65,23.39,28.65,25.52,27.33,26.84z"/>
	<path class="st5" d="M69.22,20.84c-1.98-1.98-5.2-1.98-7.18,0L41.81,41.08c-1.98,1.98-1.98,5.2,0,7.18c1.98,1.98,5.2,1.98,7.18,0
		l20.23-20.23C71.2,26.04,71.2,22.83,69.22,20.84z M42.91,47.16c-1.32-1.32-1.32-3.45,0-4.77c1.32-1.32,3.45-1.32,4.77,0
		c1.32,1.32,1.32,3.45,0,4.77C46.36,48.47,44.22,48.47,42.91,47.16z M63.22,26.84c-1.32-1.32-1.32-3.45,0-4.77
		c1.32-1.32,3.45-1.32,4.77,0c1.31,1.32,1.31,3.45,0,4.77C66.68,28.15,64.54,28.15,63.22,26.84z"/>
	<path class="st5" d="M65.63,19.36c-2.8,0-5.08,2.27-5.08,5.08v40.41c0,2.8,2.27,5.08,5.08,5.08c2.8,0,5.08-2.27,5.08-5.08V24.43
		C70.71,21.63,68.43,19.36,65.63,19.36z M65.63,68.37c-1.86,0-3.37-1.51-3.37-3.37c0-1.86,1.51-3.37,3.37-3.37
		c1.86,0,3.37,1.51,3.37,3.37C69,66.85,67.49,68.37,65.63,68.37z M65.63,27.83c-1.86,0-3.37-1.51-3.37-3.37
		c0-1.86,1.51-3.37,3.37-3.37c1.86,0,3.37,1.51,3.37,3.37C69,26.32,67.49,27.83,65.63,27.83z"/>
</g>
<g>
	<g>
		<path class="st2" d="M129.77,29.89H96.23c-3.01,0-5.45-2.45-5.45-5.45s2.45-5.45,5.45-5.45h33.54c3.01,0,5.46,2.45,5.46,5.45
			S132.78,29.89,129.77,29.89z M96.23,19.73c-2.59,0-4.7,2.11-4.7,4.7c0,2.59,2.11,4.7,4.7,4.7h33.54c2.59,0,4.71-2.11,4.71-4.7
			c0-2.59-2.11-4.7-4.71-4.7H96.23z M129.74,28.18c-2.07,0-3.75-1.68-3.75-3.75c0-2.07,1.68-3.75,3.75-3.75
			c2.07,0,3.75,1.68,3.75,3.75C133.49,26.5,131.81,28.18,129.74,28.18z M129.74,21.44c-1.65,0-3,1.34-3,3c0,1.65,1.34,3,3,3
			c1.65,0,3-1.34,3-3C132.74,22.78,131.4,21.44,129.74,21.44z M96.08,28.18c-2.07,0-3.75-1.68-3.75-3.75c0-2.07,1.68-3.75,3.75-3.75
			c2.07,0,3.75,1.68,3.75,3.75C99.82,26.5,98.14,28.18,96.08,28.18z M96.08,21.44c-1.65,0-3,1.34-3,3c0,1.65,1.34,3,3,3
			c1.65,0,3-1.34,3-3C99.07,22.78,97.73,21.44,96.08,21.44z"/>
	</g>
</g>
<g>
	<g>
		<path class="st2" d="M129.77,70.3H96.23c-3.01,0-5.45-2.45-5.45-5.45c0-3.01,2.45-5.46,5.45-5.46h33.54
			c3.01,0,5.46,2.45,5.46,5.46C135.22,67.85,132.78,70.3,129.77,70.3z M96.23,60.14c-2.59,0-4.7,2.11-4.7,4.71
			c0,2.59,2.11,4.7,4.7,4.7h33.54c2.59,0,4.71-2.11,4.71-4.7c0-2.59-2.11-4.71-4.71-4.71H96.23z M129.74,68.59
			c-2.07,0-3.75-1.68-3.75-3.75c0-2.07,1.68-3.75,3.75-3.75c2.07,0,3.75,1.68,3.75,3.75C133.49,66.91,131.81,68.59,129.74,68.59z
			 M129.74,61.85c-1.65,0-3,1.34-3,3c0,1.65,1.34,3,3,3c1.65,0,3-1.34,3-3C132.74,63.19,131.4,61.85,129.74,61.85z M96.08,68.59
			c-2.07,0-3.75-1.68-3.75-3.75c0-2.07,1.68-3.75,3.75-3.75c2.07,0,3.75,1.68,3.75,3.75C99.82,66.91,98.14,68.59,96.08,68.59z
			 M96.08,61.85c-1.65,0-3,1.34-3,3c0,1.65,1.34,3,3,3c1.65,0,3-1.34,3-3C99.07,63.19,97.73,61.85,96.08,61.85z"/>
	</g>
</g>
<g>
	<g>
		<path class="st2" d="M96.23,70.3c-1.46,0-2.83-0.57-3.86-1.6c-2.13-2.13-2.13-5.58,0-7.71l33.52-40.38
			c1.05-1.06,2.42-1.62,3.88-1.62c1.46,0,2.83,0.57,3.86,1.6c1.03,1.03,1.6,2.4,1.6,3.86c0,1.46-0.57,2.83-1.6,3.86l-33.52,40.38
			C99.05,69.73,97.68,70.3,96.23,70.3z M129.77,19.73c-1.26,0-2.44,0.49-3.33,1.38L92.92,61.49c-1.86,1.86-1.86,4.84-0.02,6.68
			c0.89,0.89,2.07,1.38,3.33,1.38c1.26,0,2.44-0.49,3.33-1.38l33.52-40.38c0.91-0.91,1.4-2.1,1.4-3.35c0-1.26-0.49-2.44-1.38-3.32
			C132.21,20.22,131.03,19.73,129.77,19.73z M96.12,68.7c-1,0-1.94-0.39-2.65-1.1c-0.71-0.71-1.1-1.65-1.1-2.65
			c0-1,0.39-1.94,1.1-2.65c0.71-0.71,1.65-1.1,2.65-1.1c1,0,1.94,0.39,2.65,1.1c0.71,0.71,1.1,1.65,1.1,2.65c0,1-0.39,1.94-1.1,2.65
			C98.06,68.31,97.12,68.7,96.12,68.7z M96.12,61.95c-0.8,0-1.55,0.31-2.12,0.88c-0.57,0.57-0.88,1.32-0.88,2.12
			c0,0.8,0.31,1.55,0.88,2.12c1.13,1.13,3.11,1.13,4.24,0c0.57-0.57,0.88-1.32,0.88-2.12c0-0.8-0.31-1.55-0.88-2.12
			C97.67,62.27,96.92,61.95,96.12,61.95z M129.75,28.2c-1,0-1.94-0.39-2.65-1.1c-1.46-1.46-1.46-3.84,0-5.3
			c1.42-1.42,3.88-1.41,5.3,0c1.46,1.46,1.46,3.84,0,5.3C131.69,27.81,130.75,28.2,129.75,28.2z M129.75,21.46
			c-0.8,0-1.55,0.31-2.12,0.88c-1.17,1.17-1.17,3.07,0,4.24c1.13,1.13,3.11,1.13,4.24,0c1.17-1.17,1.17-3.07,0-4.24
			C131.3,21.77,130.55,21.46,129.75,21.46z"/>
	</g>
</g>
<g>
	<g>
		<path class="st2" d="M24.93,70.06c-2.94,0-5.33-2.39-5.33-5.33V24.32c0-2.94,2.39-5.33,5.33-5.33c2.94,0,5.33,2.39,5.33,5.33
			v40.41C30.25,67.67,27.86,70.06,24.93,70.06z M24.93,19.49c-2.66,0-4.83,2.17-4.83,4.83v40.41c0,2.66,2.17,4.83,4.83,4.83
			c2.66,0,4.83-2.17,4.83-4.83V24.32C29.75,21.66,27.59,19.49,24.93,19.49z M24.93,68.5c-2,0-3.62-1.63-3.62-3.62
			c0-2,1.62-3.62,3.62-3.62c2,0,3.62,1.63,3.62,3.62C28.55,66.88,26.92,68.5,24.93,68.5z M24.93,61.76c-1.72,0-3.12,1.4-3.12,3.12
			c0,1.72,1.4,3.12,3.12,3.12c1.72,0,3.12-1.4,3.12-3.12C28.05,63.16,26.65,61.76,24.93,61.76z M24.93,27.97
			c-2,0-3.62-1.63-3.62-3.63c0-2,1.62-3.62,3.62-3.62c2,0,3.62,1.62,3.62,3.62C28.55,26.34,26.92,27.97,24.93,27.97z M24.93,21.22
			c-1.72,0-3.12,1.4-3.12,3.12c0,1.72,1.4,3.13,3.12,3.13c1.72,0,3.12-1.4,3.12-3.13C28.05,22.62,26.65,21.22,24.93,21.22z"/>
	</g>
</g>
<g>
	<g>
		<path class="st2" d="M45.16,49.99c-1.42,0-2.76-0.55-3.77-1.56L21.16,28.2c-1.01-1.01-1.56-2.34-1.56-3.77
			c0-1.42,0.55-2.76,1.56-3.77c1.01-1.01,2.34-1.56,3.77-1.56c1.42,0,2.76,0.55,3.77,1.56L48.92,40.9c1.01,1.01,1.56,2.34,1.56,3.77
			c0,1.42-0.55,2.76-1.56,3.77C47.92,49.44,46.58,49.99,45.16,49.99z M24.93,19.61c-1.29,0-2.5,0.5-3.41,1.41
			c-0.91,0.91-1.41,2.12-1.41,3.41c0,1.29,0.5,2.5,1.41,3.41l20.23,20.23c0.91,0.91,2.13,1.41,3.42,1.41c1.29,0,2.5-0.5,3.41-1.41
			c0.91-0.91,1.41-2.12,1.41-3.41c0-1.29-0.5-2.5-1.41-3.41L28.34,21.02C27.43,20.11,26.22,19.61,24.93,19.61z M45.26,48.39
			c-0.97,0-1.88-0.38-2.56-1.06c-1.41-1.41-1.41-3.71,0-5.12c0.68-0.68,1.59-1.06,2.56-1.06c0.97,0,1.88,0.38,2.56,1.06
			c1.41,1.41,1.41,3.71,0,5.12C47.14,48.02,46.23,48.39,45.26,48.39z M45.26,41.65c-0.83,0-1.62,0.32-2.21,0.91
			c-1.22,1.22-1.22,3.2,0,4.42c0.59,0.59,1.37,0.92,2.21,0.92c0.83,0,1.62-0.33,2.21-0.92c1.22-1.22,1.22-3.2,0-4.42
			C46.88,41.97,46.1,41.65,45.26,41.65z M24.95,28.08c-0.97,0-1.88-0.38-2.56-1.06c-1.41-1.41-1.41-3.71,0-5.12
			c0.68-0.68,1.59-1.06,2.56-1.06c0.97,0,1.88,0.38,2.56,1.06c1.41,1.41,1.41,3.71,0,5.12C26.82,27.7,25.91,28.08,24.95,28.08z
			 M24.94,21.33c-0.83,0-1.62,0.32-2.21,0.91c-1.22,1.22-1.21,3.2,0,4.42c0.59,0.59,1.37,0.91,2.21,0.91c0.83,0,1.62-0.32,2.21-0.91
			c1.22-1.22,1.22-3.2,0-4.42C26.56,21.66,25.78,21.33,24.94,21.33z"/>
	</g>
</g>
<g>
	<g>
		<path class="st2" d="M45.4,49.99c-1.42,0-2.76-0.55-3.77-1.56c-1.01-1.01-1.56-2.34-1.56-3.77c0-1.42,0.55-2.76,1.56-3.77
			l20.23-20.23c1.01-1.01,2.34-1.56,3.77-1.56c1.42,0,2.76,0.55,3.77,1.56c1.01,1.01,1.56,2.34,1.56,3.77
			c0,1.42-0.55,2.76-1.56,3.77L49.16,48.43C48.16,49.44,46.82,49.99,45.4,49.99z M65.63,19.61c-1.29,0-2.5,0.5-3.41,1.41
			L41.98,41.25c-0.91,0.91-1.41,2.12-1.41,3.41c0,1.29,0.5,2.5,1.41,3.41c0.91,0.91,2.12,1.41,3.41,1.41c1.29,0,2.5-0.5,3.41-1.41
			l20.23-20.23c0.91-0.91,1.41-2.12,1.41-3.41c0-1.29-0.5-2.5-1.41-3.41C68.13,20.11,66.92,19.61,65.63,19.61z M45.29,48.39
			c-0.97,0-1.88-0.38-2.56-1.06c-1.41-1.41-1.41-3.71,0-5.12c0.68-0.68,1.59-1.06,2.56-1.06c0.97,0,1.88,0.38,2.56,1.06
			c1.41,1.41,1.41,3.71,0,5.12C47.17,48.02,46.26,48.39,45.29,48.39z M45.29,41.65c-0.83,0-1.62,0.33-2.21,0.91
			c-1.22,1.22-1.22,3.2,0,4.42c0.59,0.59,1.37,0.92,2.21,0.92s1.62-0.33,2.21-0.92c1.22-1.22,1.22-3.2,0-4.42
			C46.91,41.97,46.13,41.65,45.29,41.65z M65.61,28.08c-0.97,0-1.88-0.38-2.56-1.06c-1.41-1.41-1.41-3.71,0-5.12
			c0.68-0.68,1.59-1.06,2.56-1.06s1.88,0.38,2.56,1.06c1.41,1.41,1.41,3.71,0,5.12C67.49,27.7,66.58,28.08,65.61,28.08z
			 M65.61,21.33c-0.83,0-1.62,0.32-2.21,0.91c-1.22,1.22-1.22,3.2,0,4.42c0.59,0.59,1.37,0.91,2.21,0.91c0.83,0,1.62-0.32,2.21-0.91
			c1.22-1.22,1.22-3.2,0-4.42C67.23,21.66,66.44,21.33,65.61,21.33z"/>
	</g>
</g>
<g>
	<g>
		<path class="st2" d="M65.63,70.17c-2.94,0-5.33-2.39-5.33-5.33V24.43c0-2.94,2.39-5.33,5.33-5.33c2.94,0,5.33,2.39,5.33,5.33
			v40.41C70.96,67.78,68.57,70.17,65.63,70.17z M65.63,19.61c-2.66,0-4.83,2.17-4.83,4.83v40.41c0,2.66,2.17,4.83,4.83,4.83
			c2.66,0,4.83-2.17,4.83-4.83V24.43C70.46,21.77,68.29,19.61,65.63,19.61z M65.63,68.62c-2,0-3.62-1.63-3.62-3.62
			c0-2,1.62-3.62,3.62-3.62c2,0,3.62,1.62,3.62,3.62C69.25,66.99,67.63,68.62,65.63,68.62z M65.63,61.87c-1.72,0-3.12,1.4-3.12,3.12
			c0,1.72,1.4,3.12,3.12,3.12c1.72,0,3.12-1.4,3.12-3.12C68.75,63.27,67.35,61.87,65.63,61.87z M65.63,28.08
			c-2,0-3.62-1.63-3.62-3.62c0-2,1.62-3.62,3.62-3.62c2,0,3.62,1.63,3.62,3.62C69.25,26.46,67.63,28.08,65.63,28.08z M65.63,21.34
			c-1.72,0-3.12,1.4-3.12,3.12c0,1.72,1.4,3.12,3.12,3.12c1.72,0,3.12-1.4,3.12-3.12C68.75,22.74,67.35,21.34,65.63,21.34z"/>
	</g>
</g>
<g>
	<path class="st1" d="M19.6,111.28V97.63c0-0.14,0.03-0.28,0.08-0.41c0.05-0.13,0.13-0.24,0.22-0.34c0.1-0.09,0.2-0.17,0.33-0.22
		c0.13-0.05,0.26-0.08,0.41-0.08c0.41,0,0.71,0.19,0.92,0.56l5.9,11.79l5.9-11.79c0.24-0.37,0.54-0.56,0.92-0.56
		c0.14,0,0.28,0.03,0.41,0.08c0.13,0.05,0.24,0.13,0.34,0.22c0.1,0.1,0.17,0.21,0.22,0.34c0.05,0.13,0.08,0.26,0.08,0.41v13.65
		c0,0.29-0.1,0.54-0.3,0.74c-0.2,0.2-0.45,0.3-0.74,0.3c-0.29,0-0.53-0.1-0.74-0.3c-0.2-0.2-0.31-0.45-0.31-0.74v-9.22l-4.88,9.75
		c-0.2,0.35-0.5,0.52-0.9,0.52c-0.43,0-0.75-0.21-0.95-0.63l-4.83-9.64v9.22c0,0.29-0.1,0.54-0.3,0.74c-0.2,0.2-0.45,0.3-0.74,0.3
		c-0.29,0-0.54-0.1-0.74-0.3C19.7,111.81,19.6,111.57,19.6,111.28z"/>
	<path class="st1" d="M36.18,110.81l5.25-13.51c0.21-0.47,0.54-0.71,0.99-0.71c0.47,0,0.8,0.24,0.99,0.71l5.27,13.56
		c0.05,0.13,0.08,0.27,0.08,0.42c0,0.29-0.1,0.54-0.3,0.74c-0.2,0.2-0.45,0.3-0.74,0.3c-0.29,0-0.53-0.1-0.73-0.3
		c-0.1-0.1-0.18-0.22-0.23-0.33l-1.82-4.67h-5.04l-1.83,4.67c-0.05,0.12-0.13,0.23-0.23,0.33c-0.2,0.2-0.45,0.3-0.74,0.3
		c-0.29,0-0.53-0.1-0.73-0.3c-0.2-0.2-0.3-0.45-0.3-0.74C36.07,111.12,36.11,110.96,36.18,110.81z M44.14,104.92l-1.71-4.42
		l-1.71,4.42H44.14z"/>
	<path class="st1" d="M49.41,97.63c0-0.29,0.1-0.53,0.31-0.74c0.2-0.2,0.45-0.3,0.74-0.3c0.29,0,0.53,0.1,0.74,0.3
		c0.2,0.2,0.31,0.45,0.31,0.74v5.82l6.54-6.54c0.22-0.22,0.47-0.33,0.76-0.33c0.14,0,0.28,0.03,0.41,0.08
		c0.13,0.05,0.24,0.13,0.34,0.22c0.09,0.1,0.17,0.21,0.22,0.34c0.05,0.13,0.08,0.26,0.08,0.41c0,0.29-0.1,0.53-0.31,0.74l-5.15,5.16
		l5.26,7.13c0.13,0.18,0.2,0.38,0.2,0.59c0,0.14-0.03,0.27-0.08,0.4c-0.05,0.13-0.13,0.25-0.22,0.34c-0.09,0.1-0.2,0.18-0.32,0.24
		c-0.13,0.06-0.26,0.09-0.4,0.09c-0.39,0-0.68-0.15-0.88-0.44l-5.06-6.85l-1.39,1.39v4.87c0,0.29-0.1,0.54-0.31,0.74
		c-0.2,0.2-0.45,0.3-0.74,0.3c-0.29,0-0.54-0.1-0.74-0.3c-0.2-0.2-0.31-0.45-0.31-0.74V97.63z"/>
	<path class="st1" d="M70.55,110.23c0.29,0,0.54,0.1,0.74,0.31c0.2,0.2,0.3,0.45,0.3,0.74c0,0.29-0.1,0.54-0.3,0.74
		c-0.2,0.2-0.45,0.3-0.74,0.3h-9.1c-0.15,0-0.29-0.03-0.41-0.08c-0.12-0.05-0.23-0.13-0.33-0.22c-0.09-0.1-0.17-0.21-0.22-0.33
		c-0.05-0.13-0.08-0.26-0.08-0.41V97.63c0-0.14,0.03-0.28,0.08-0.41c0.05-0.13,0.13-0.24,0.22-0.34c0.1-0.09,0.21-0.17,0.33-0.22
		c0.13-0.05,0.26-0.08,0.41-0.08h9.1c0.29,0,0.54,0.1,0.74,0.3c0.2,0.2,0.3,0.45,0.3,0.74c0,0.29-0.1,0.53-0.3,0.74
		c-0.2,0.2-0.45,0.31-0.74,0.31H62.5v4.74h5.78c0.29,0,0.54,0.1,0.74,0.3c0.2,0.2,0.3,0.45,0.3,0.74c0,0.29-0.1,0.53-0.3,0.74
		c-0.2,0.2-0.45,0.3-0.74,0.3H62.5v4.74H70.55z"/>
</g>
<g>
	<g>
		<path class="st0" d="M71.08,96.58H81.7c0.14,0,0.28,0.03,0.41,0.08c0.13,0.05,0.24,0.13,0.33,0.22c0.1,0.1,0.17,0.21,0.22,0.34
			c0.05,0.13,0.08,0.26,0.08,0.41c0,0.22-0.07,0.42-0.2,0.61l-9.33,12h8.49c0.29,0.01,0.54,0.11,0.74,0.32
			c0.2,0.2,0.3,0.45,0.3,0.74c0,0.29-0.1,0.53-0.3,0.73c-0.2,0.2-0.44,0.3-0.73,0.3H71.08c-0.15,0-0.29-0.03-0.41-0.08
			c-0.13-0.05-0.24-0.13-0.33-0.22c-0.1-0.1-0.17-0.21-0.22-0.33c-0.05-0.13-0.08-0.26-0.08-0.41c0.01-0.25,0.08-0.47,0.22-0.65
			l9.31-11.96h-8.49c-0.28,0-0.52-0.1-0.73-0.31c-0.21-0.2-0.31-0.45-0.31-0.74c0-0.29,0.1-0.53,0.31-0.74
			C70.55,96.69,70.79,96.58,71.08,96.58z"/>
		<path class="st0" d="M85.47,97.63v9.1c0,0.48,0.09,0.93,0.27,1.36c0.18,0.43,0.43,0.8,0.75,1.12c0.31,0.32,0.68,0.57,1.11,0.76
			c0.42,0.19,0.88,0.28,1.37,0.28c0.49,0,0.94-0.09,1.37-0.27c0.43-0.18,0.8-0.44,1.12-0.76c0.32-0.32,0.57-0.69,0.75-1.12
			c0.18-0.42,0.27-0.88,0.27-1.36v-9.1c0-0.29,0.1-0.53,0.31-0.74c0.2-0.2,0.45-0.3,0.74-0.3s0.54,0.1,0.74,0.3
			c0.2,0.2,0.3,0.45,0.3,0.74v9.1c0,0.51-0.07,1-0.2,1.47c-0.13,0.47-0.32,0.92-0.56,1.33c-0.24,0.42-0.54,0.79-0.88,1.14
			s-0.72,0.63-1.14,0.88c-0.42,0.25-0.86,0.44-1.34,0.57c-0.47,0.13-0.97,0.2-1.48,0.2c-1.55,0-2.86-0.55-3.94-1.64
			c-1.1-1.09-1.64-2.41-1.64-3.95v-9.1c0-0.29,0.1-0.53,0.31-0.74c0.2-0.2,0.45-0.3,0.74-0.3c0.29,0,0.54,0.1,0.74,0.3
			C85.37,97.09,85.47,97.34,85.47,97.63z"/>
		<path class="st0" d="M95.16,111.28V97.63c0-0.14,0.03-0.28,0.08-0.41c0.05-0.13,0.13-0.24,0.22-0.34c0.09-0.09,0.2-0.17,0.33-0.22
			c0.12-0.05,0.26-0.08,0.41-0.08h3.8c0.66,0,1.29,0.13,1.88,0.38c0.58,0.25,1.1,0.6,1.53,1.04c0.43,0.44,0.78,0.95,1.04,1.54
			c0.26,0.59,0.38,1.21,0.38,1.87c0,0.43-0.05,0.85-0.16,1.26c-0.11,0.41-0.27,0.8-0.48,1.16c-0.21,0.36-0.48,0.7-0.8,1.01
			c-0.32,0.31-0.69,0.58-1.11,0.82l3.14,5.03c0.11,0.18,0.17,0.38,0.17,0.57c0,0.15-0.03,0.29-0.08,0.41
			c-0.05,0.12-0.13,0.23-0.22,0.33c-0.09,0.09-0.21,0.17-0.33,0.22c-0.13,0.05-0.26,0.08-0.41,0.08c-0.37,0-0.67-0.17-0.89-0.51
			l-3.47-5.56h-2.93v5.03c0,0.29-0.1,0.54-0.3,0.74c-0.21,0.2-0.45,0.3-0.74,0.3c-0.29,0-0.53-0.1-0.74-0.3
			C95.26,111.81,95.16,111.57,95.16,111.28z M97.24,98.67v5.5h2.75c0.38,0,0.74-0.07,1.07-0.22c0.34-0.14,0.63-0.34,0.87-0.59
			c0.25-0.25,0.44-0.54,0.59-0.88c0.14-0.33,0.22-0.68,0.22-1.06c0-0.38-0.07-0.74-0.22-1.07c-0.14-0.33-0.34-0.63-0.59-0.88
			c-0.25-0.25-0.54-0.45-0.88-0.59c-0.33-0.15-0.69-0.22-1.06-0.22H97.24z"/>
		<path class="st0" d="M108.94,111.28c0,0.29-0.1,0.54-0.31,0.74c-0.2,0.2-0.45,0.3-0.74,0.3c-0.29,0-0.54-0.1-0.74-0.3
			c-0.2-0.2-0.3-0.45-0.3-0.74V97.63c0-0.29,0.1-0.53,0.3-0.74c0.2-0.2,0.45-0.3,0.74-0.3c0.29,0,0.53,0.1,0.74,0.3
			c0.2,0.2,0.31,0.45,0.31,0.74V111.28z"/>
		<path class="st0" d="M122.19,108.78c0.14,0,0.28,0.03,0.4,0.08c0.12,0.06,0.23,0.13,0.33,0.22c0.09,0.09,0.17,0.2,0.23,0.33
			c0.06,0.13,0.08,0.26,0.08,0.41c0,0.28-0.11,0.52-0.33,0.75c-1.46,1.17-3.11,1.75-4.95,1.75c-2.18,0-4.03-0.77-5.57-2.3
			c-1.53-1.54-2.3-3.39-2.3-5.57c0-2.17,0.77-4.02,2.3-5.56c1.54-1.54,3.4-2.31,5.57-2.31c1.86,0,3.54,0.61,5.04,1.84
			c0.18,0.18,0.28,0.42,0.28,0.72c0,0.15-0.03,0.29-0.08,0.41c-0.05,0.13-0.13,0.23-0.22,0.33c-0.1,0.09-0.21,0.17-0.33,0.22
			c-0.13,0.05-0.26,0.08-0.41,0.08c-0.25,0-0.5-0.1-0.72-0.3c-0.5-0.39-1.05-0.69-1.65-0.9c-0.6-0.21-1.24-0.31-1.91-0.31
			c-1.6,0-2.97,0.57-4.1,1.7c-1.12,1.12-1.68,2.48-1.68,4.08c0,1.61,0.56,2.97,1.68,4.09c1.13,1.13,2.5,1.69,4.1,1.69
			c1.37,0,2.58-0.42,3.62-1.27C121.75,108.85,121.96,108.79,122.19,108.78z"/>
		<path class="st0" d="M135.01,111.28c0,0.29-0.1,0.54-0.31,0.74c-0.2,0.2-0.45,0.3-0.74,0.3c-0.29,0-0.54-0.1-0.74-0.3
			c-0.2-0.2-0.31-0.45-0.31-0.74v-5.78h-7.01v5.78c0,0.29-0.1,0.54-0.3,0.74c-0.21,0.2-0.45,0.3-0.74,0.3c-0.29,0-0.53-0.1-0.74-0.3
			c-0.2-0.2-0.3-0.45-0.3-0.74V97.63c0-0.29,0.1-0.53,0.3-0.74c0.21-0.2,0.45-0.3,0.74-0.3c0.29,0,0.54,0.1,0.74,0.3
			c0.2,0.2,0.3,0.45,0.3,0.74v5.78h7.01v-5.78c0-0.29,0.1-0.53,0.31-0.74c0.2-0.2,0.45-0.3,0.74-0.3c0.29,0,0.53,0.1,0.74,0.3
			c0.2,0.2,0.31,0.45,0.31,0.74V111.28z"/>
	</g>
</g>
<g>
	<path class="st0" d="M50.67,116.91c0.12-0.12,0.27-0.18,0.44-0.18c0.18,0,0.32,0.06,0.44,0.18c0.12,0.12,0.18,0.27,0.18,0.44
		c0,0.17-0.06,0.32-0.18,0.44c-0.12,0.12-0.27,0.18-0.44,0.18c-0.17,0-0.32-0.06-0.44-0.18c-0.12-0.12-0.18-0.27-0.18-0.44
		C50.49,117.18,50.55,117.03,50.67,116.91z M50.67,119.38c0.12-0.12,0.27-0.18,0.44-0.18c0.18,0,0.33,0.06,0.45,0.18
		c0.12,0.12,0.18,0.27,0.18,0.44c0,0.18-0.06,0.32-0.18,0.45c-0.12,0.12-0.27,0.18-0.45,0.18c-0.17,0-0.32-0.06-0.44-0.18
		c-0.12-0.12-0.18-0.27-0.18-0.45C50.49,119.65,50.55,119.5,50.67,119.38z"/>
</g>
<path class="st0" d="M53.21,119.3c0.13-0.13,0.29-0.2,0.47-0.2c0.19,0,0.35,0.06,0.48,0.2c0.13,0.13,0.19,0.29,0.19,0.47
	c0,0.19-0.06,0.35-0.19,0.48c-0.13,0.13-0.29,0.19-0.48,0.19c-0.19,0-0.34-0.06-0.47-0.19c-0.13-0.13-0.19-0.29-0.19-0.48
	C53.01,119.59,53.08,119.43,53.21,119.3z"/>
<path class="st0" d="M55.82,116.91c0.12-0.12,0.27-0.18,0.44-0.18c0.18,0,0.32,0.06,0.44,0.18c0.12,0.12,0.18,0.27,0.18,0.44
	c0,0.17-0.06,0.32-0.18,0.44c-0.12,0.12-0.27,0.18-0.44,0.18c-0.17,0-0.32-0.06-0.44-0.18c-0.12-0.12-0.18-0.27-0.18-0.44
	C55.63,117.18,55.69,117.03,55.82,116.91z M55.82,119.38c0.12-0.12,0.27-0.18,0.44-0.18c0.18,0,0.33,0.06,0.45,0.18
	c0.12,0.12,0.18,0.27,0.18,0.44c0,0.18-0.06,0.32-0.18,0.45c-0.12,0.12-0.27,0.18-0.45,0.18c-0.17,0-0.32-0.06-0.44-0.18
	c-0.12-0.12-0.18-0.27-0.18-0.45C55.63,119.65,55.69,119.5,55.82,119.38z"/>
<g>
	<path class="st0" d="M58.39,116.91c0.12-0.12,0.27-0.18,0.44-0.18c0.18,0,0.32,0.06,0.44,0.18c0.12,0.12,0.18,0.27,0.18,0.44
		c0,0.17-0.06,0.32-0.18,0.44c-0.12,0.12-0.27,0.18-0.44,0.18c-0.17,0-0.32-0.06-0.44-0.18c-0.12-0.12-0.18-0.27-0.18-0.44
		C58.21,117.18,58.27,117.03,58.39,116.91z M58.39,119.38c0.12-0.12,0.27-0.18,0.44-0.18c0.18,0,0.33,0.06,0.45,0.18
		c0.12,0.12,0.18,0.27,0.18,0.44c0,0.18-0.06,0.32-0.18,0.45c-0.12,0.12-0.27,0.18-0.45,0.18c-0.17,0-0.32-0.06-0.44-0.18
		c-0.12-0.12-0.18-0.27-0.18-0.45C58.21,119.65,58.27,119.5,58.39,119.38z"/>
</g>
<path class="st0" d="M60.93,119.3c0.13-0.13,0.29-0.2,0.47-0.2c0.19,0,0.35,0.06,0.48,0.2c0.13,0.13,0.19,0.29,0.19,0.47
	c0,0.19-0.06,0.35-0.19,0.48c-0.13,0.13-0.29,0.19-0.48,0.19c-0.19,0-0.34-0.06-0.47-0.19c-0.13-0.13-0.19-0.29-0.19-0.48
	C60.74,119.59,60.8,119.43,60.93,119.3z"/>
<path class="st0" d="M63.54,116.91c0.12-0.12,0.27-0.18,0.44-0.18c0.18,0,0.32,0.06,0.44,0.18c0.12,0.12,0.18,0.27,0.18,0.44
	c0,0.17-0.06,0.32-0.18,0.44c-0.12,0.12-0.27,0.18-0.44,0.18c-0.17,0-0.32-0.06-0.44-0.18c-0.12-0.12-0.18-0.27-0.18-0.44
	C63.36,117.18,63.42,117.03,63.54,116.91z M63.54,119.38c0.12-0.12,0.27-0.18,0.44-0.18c0.18,0,0.33,0.06,0.45,0.18
	c0.12,0.12,0.18,0.27,0.18,0.44c0,0.18-0.06,0.32-0.18,0.45c-0.12,0.12-0.27,0.18-0.45,0.18c-0.17,0-0.32-0.06-0.44-0.18
	c-0.12-0.12-0.18-0.27-0.18-0.45C63.36,119.65,63.42,119.5,63.54,119.38z"/>
<g>
	<path class="st0" d="M35.22,116.91c0.12-0.12,0.27-0.18,0.44-0.18c0.18,0,0.32,0.06,0.44,0.18c0.12,0.12,0.18,0.27,0.18,0.44
		c0,0.17-0.06,0.32-0.18,0.44c-0.12,0.12-0.27,0.18-0.44,0.18c-0.17,0-0.32-0.06-0.44-0.18c-0.12-0.12-0.18-0.27-0.18-0.44
		C35.04,117.18,35.1,117.03,35.22,116.91z M35.22,119.38c0.12-0.12,0.27-0.18,0.44-0.18c0.18,0,0.33,0.06,0.45,0.18
		c0.12,0.12,0.18,0.27,0.18,0.44c0,0.18-0.06,0.32-0.18,0.45c-0.12,0.12-0.27,0.18-0.45,0.18c-0.17,0-0.32-0.06-0.44-0.18
		c-0.12-0.12-0.18-0.27-0.18-0.45C35.04,119.65,35.1,119.5,35.22,119.38z"/>
</g>
<path class="st0" d="M37.76,119.3c0.13-0.13,0.29-0.2,0.47-0.2c0.19,0,0.35,0.06,0.48,0.2c0.13,0.13,0.19,0.29,0.19,0.47
	c0,0.19-0.06,0.35-0.19,0.48c-0.13,0.13-0.29,0.19-0.48,0.19c-0.19,0-0.34-0.06-0.47-0.19c-0.13-0.13-0.19-0.29-0.19-0.48
	C37.56,119.59,37.63,119.43,37.76,119.3z"/>
<path class="st0" d="M40.37,116.91c0.12-0.12,0.27-0.18,0.44-0.18c0.18,0,0.32,0.06,0.44,0.18c0.12,0.12,0.18,0.27,0.18,0.44
	c0,0.17-0.06,0.32-0.18,0.44c-0.12,0.12-0.27,0.18-0.44,0.18c-0.17,0-0.32-0.06-0.44-0.18c-0.12-0.12-0.18-0.27-0.18-0.44
	C40.19,117.18,40.25,117.03,40.37,116.91z M40.37,119.38c0.12-0.12,0.27-0.18,0.44-0.18c0.18,0,0.33,0.06,0.45,0.18
	c0.12,0.12,0.18,0.27,0.18,0.44c0,0.18-0.06,0.32-0.18,0.45c-0.12,0.12-0.27,0.18-0.45,0.18c-0.17,0-0.32-0.06-0.44-0.18
	c-0.12-0.12-0.18-0.27-0.18-0.45C40.19,119.65,40.25,119.5,40.37,119.38z"/>
<g>
	<path class="st0" d="M42.94,116.91c0.12-0.12,0.27-0.18,0.44-0.18c0.18,0,0.32,0.06,0.44,0.18c0.12,0.12,0.18,0.27,0.18,0.44
		c0,0.17-0.06,0.32-0.18,0.44c-0.12,0.12-0.27,0.18-0.44,0.18c-0.17,0-0.32-0.06-0.44-0.18c-0.12-0.12-0.18-0.27-0.18-0.44
		C42.76,117.18,42.82,117.03,42.94,116.91z M42.94,119.38c0.12-0.12,0.27-0.18,0.44-0.18c0.18,0,0.33,0.06,0.45,0.18
		c0.12,0.12,0.18,0.27,0.18,0.44c0,0.18-0.06,0.32-0.18,0.45c-0.12,0.12-0.27,0.18-0.45,0.18c-0.17,0-0.32-0.06-0.44-0.18
		c-0.12-0.12-0.18-0.27-0.18-0.45C42.76,119.65,42.82,119.5,42.94,119.38z"/>
</g>
<path class="st0" d="M45.48,119.3c0.13-0.13,0.29-0.2,0.47-0.2c0.19,0,0.35,0.06,0.48,0.2c0.13,0.13,0.19,0.29,0.19,0.47
	c0,0.19-0.06,0.35-0.19,0.48c-0.13,0.13-0.29,0.19-0.48,0.19c-0.19,0-0.34-0.06-0.47-0.19c-0.13-0.13-0.19-0.29-0.19-0.48
	C45.29,119.59,45.35,119.43,45.48,119.3z"/>
<path class="st0" d="M48.09,116.91c0.12-0.12,0.27-0.18,0.44-0.18c0.18,0,0.32,0.06,0.44,0.18c0.12,0.12,0.18,0.27,0.18,0.44
	c0,0.17-0.06,0.32-0.18,0.44c-0.12,0.12-0.27,0.18-0.44,0.18c-0.17,0-0.32-0.06-0.44-0.18c-0.12-0.12-0.18-0.27-0.18-0.44
	C47.91,117.18,47.97,117.03,48.09,116.91z M48.09,119.38c0.12-0.12,0.27-0.18,0.44-0.18c0.18,0,0.33,0.06,0.45,0.18
	c0.12,0.12,0.18,0.27,0.18,0.44c0,0.18-0.06,0.32-0.18,0.45c-0.12,0.12-0.27,0.18-0.45,0.18c-0.17,0-0.32-0.06-0.44-0.18
	c-0.12-0.12-0.18-0.27-0.18-0.45C47.91,119.65,47.97,119.5,48.09,119.38z"/>
<g>
	<path class="st0" d="M19.77,116.91c0.12-0.12,0.27-0.18,0.44-0.18c0.18,0,0.32,0.06,0.44,0.18c0.12,0.12,0.18,0.27,0.18,0.44
		c0,0.17-0.06,0.32-0.18,0.44c-0.12,0.12-0.27,0.18-0.44,0.18c-0.17,0-0.32-0.06-0.44-0.18c-0.12-0.12-0.18-0.27-0.18-0.44
		C19.59,117.18,19.65,117.03,19.77,116.91z M19.77,119.38c0.12-0.12,0.27-0.18,0.44-0.18c0.18,0,0.33,0.06,0.45,0.18
		c0.12,0.12,0.18,0.27,0.18,0.44c0,0.18-0.06,0.32-0.18,0.45c-0.12,0.12-0.27,0.18-0.45,0.18c-0.17,0-0.32-0.06-0.44-0.18
		c-0.12-0.12-0.18-0.27-0.18-0.45C19.59,119.65,19.65,119.5,19.77,119.38z"/>
</g>
<path class="st0" d="M22.31,119.3c0.13-0.13,0.29-0.2,0.47-0.2c0.19,0,0.35,0.06,0.48,0.2c0.13,0.13,0.19,0.29,0.19,0.47
	c0,0.19-0.06,0.35-0.19,0.48c-0.13,0.13-0.29,0.19-0.48,0.19c-0.19,0-0.34-0.06-0.47-0.19c-0.13-0.13-0.19-0.29-0.19-0.48
	C22.12,119.59,22.18,119.43,22.31,119.3z"/>
<path class="st0" d="M24.92,116.91c0.12-0.12,0.27-0.18,0.44-0.18c0.18,0,0.32,0.06,0.44,0.18c0.12,0.12,0.18,0.27,0.18,0.44
	c0,0.17-0.06,0.32-0.18,0.44c-0.12,0.12-0.27,0.18-0.44,0.18c-0.17,0-0.32-0.06-0.44-0.18c-0.12-0.12-0.18-0.27-0.18-0.44
	C24.74,117.18,24.8,117.03,24.92,116.91z M24.92,119.38c0.12-0.12,0.27-0.18,0.44-0.18c0.18,0,0.33,0.06,0.45,0.18
	c0.12,0.12,0.18,0.27,0.18,0.44c0,0.18-0.06,0.32-0.18,0.45c-0.12,0.12-0.27,0.18-0.45,0.18c-0.17,0-0.32-0.06-0.44-0.18
	c-0.12-0.12-0.18-0.27-0.18-0.45C24.74,119.65,24.8,119.5,24.92,119.38z"/>
<g>
	<path class="st0" d="M27.49,116.91c0.12-0.12,0.27-0.18,0.44-0.18c0.18,0,0.32,0.06,0.44,0.18c0.12,0.12,0.18,0.27,0.18,0.44
		c0,0.17-0.06,0.32-0.18,0.44c-0.12,0.12-0.27,0.18-0.44,0.18c-0.17,0-0.32-0.06-0.44-0.18c-0.12-0.12-0.18-0.27-0.18-0.44
		C27.31,117.18,27.37,117.03,27.49,116.91z M27.49,119.38c0.12-0.12,0.27-0.18,0.44-0.18c0.18,0,0.33,0.06,0.45,0.18
		c0.12,0.12,0.18,0.27,0.18,0.44c0,0.18-0.06,0.32-0.18,0.45c-0.12,0.12-0.27,0.18-0.45,0.18c-0.17,0-0.32-0.06-0.44-0.18
		c-0.12-0.12-0.18-0.27-0.18-0.45C27.31,119.65,27.37,119.5,27.49,119.38z"/>
</g>
<path class="st0" d="M30.04,119.3c0.13-0.13,0.29-0.2,0.47-0.2c0.19,0,0.35,0.06,0.48,0.2c0.13,0.13,0.19,0.29,0.19,0.47
	c0,0.19-0.06,0.35-0.19,0.48c-0.13,0.13-0.29,0.19-0.48,0.19c-0.19,0-0.34-0.06-0.47-0.19c-0.13-0.13-0.19-0.29-0.19-0.48
	C29.84,119.59,29.91,119.43,30.04,119.3z"/>
<path class="st0" d="M32.64,116.91c0.12-0.12,0.27-0.18,0.44-0.18c0.18,0,0.32,0.06,0.44,0.18c0.12,0.12,0.18,0.27,0.18,0.44
	c0,0.17-0.06,0.32-0.18,0.44c-0.12,0.12-0.27,0.18-0.44,0.18c-0.17,0-0.32-0.06-0.44-0.18c-0.12-0.12-0.18-0.27-0.18-0.44
	C32.46,117.18,32.52,117.03,32.64,116.91z M32.64,119.38c0.12-0.12,0.27-0.18,0.44-0.18c0.18,0,0.33,0.06,0.45,0.18
	c0.12,0.12,0.18,0.27,0.18,0.44c0,0.18-0.06,0.32-0.18,0.45c-0.12,0.12-0.27,0.18-0.45,0.18c-0.17,0-0.32-0.06-0.44-0.18
	c-0.12-0.12-0.18-0.27-0.18-0.45C32.46,119.65,32.52,119.5,32.64,119.38z"/>
<g>
	<path class="st1" d="M121.06,116.91c0.12-0.12,0.27-0.18,0.44-0.18c0.18,0,0.32,0.06,0.44,0.18c0.12,0.12,0.18,0.27,0.18,0.44
		c0,0.17-0.06,0.32-0.18,0.44c-0.12,0.12-0.27,0.18-0.44,0.18c-0.17,0-0.32-0.06-0.44-0.18c-0.12-0.12-0.18-0.27-0.18-0.44
		C120.88,117.18,120.94,117.03,121.06,116.91z M121.06,119.38c0.12-0.12,0.27-0.18,0.44-0.18c0.18,0,0.33,0.06,0.45,0.18
		c0.12,0.12,0.18,0.27,0.18,0.44c0,0.18-0.06,0.32-0.18,0.45c-0.12,0.12-0.27,0.18-0.45,0.18c-0.17,0-0.32-0.06-0.44-0.18
		c-0.12-0.12-0.18-0.27-0.18-0.45C120.88,119.65,120.94,119.5,121.06,119.38z"/>
</g>
<path class="st1" d="M123.6,119.3c0.13-0.13,0.29-0.2,0.47-0.2c0.19,0,0.35,0.06,0.48,0.2c0.13,0.13,0.19,0.29,0.19,0.47
	c0,0.19-0.06,0.35-0.19,0.48c-0.13,0.13-0.29,0.19-0.48,0.19c-0.19,0-0.34-0.06-0.47-0.19c-0.13-0.13-0.19-0.29-0.19-0.48
	C123.4,119.59,123.47,119.43,123.6,119.3z"/>
<path class="st1" d="M126.21,116.91c0.12-0.12,0.27-0.18,0.44-0.18c0.18,0,0.32,0.06,0.44,0.18c0.12,0.12,0.18,0.27,0.18,0.44
	c0,0.17-0.06,0.32-0.18,0.44c-0.12,0.12-0.27,0.18-0.44,0.18c-0.17,0-0.32-0.06-0.44-0.18c-0.12-0.12-0.18-0.27-0.18-0.44
	C126.03,117.18,126.09,117.03,126.21,116.91z M126.21,119.38c0.12-0.12,0.27-0.18,0.44-0.18c0.18,0,0.33,0.06,0.45,0.18
	c0.12,0.12,0.18,0.27,0.18,0.44c0,0.18-0.06,0.32-0.18,0.45c-0.12,0.12-0.27,0.18-0.45,0.18c-0.17,0-0.32-0.06-0.44-0.18
	c-0.12-0.12-0.18-0.27-0.18-0.45C126.03,119.65,126.09,119.5,126.21,119.38z"/>
<g>
	<path class="st1" d="M128.78,116.91c0.12-0.12,0.27-0.18,0.44-0.18c0.18,0,0.32,0.06,0.44,0.18c0.12,0.12,0.18,0.27,0.18,0.44
		c0,0.17-0.06,0.32-0.18,0.44c-0.12,0.12-0.27,0.18-0.44,0.18c-0.17,0-0.32-0.06-0.44-0.18c-0.12-0.12-0.18-0.27-0.18-0.44
		C128.6,117.18,128.66,117.03,128.78,116.91z M128.78,119.38c0.12-0.12,0.27-0.18,0.44-0.18c0.18,0,0.33,0.06,0.45,0.18
		c0.12,0.12,0.18,0.27,0.18,0.44c0,0.18-0.06,0.32-0.18,0.45c-0.12,0.12-0.27,0.18-0.45,0.18c-0.17,0-0.32-0.06-0.44-0.18
		c-0.12-0.12-0.18-0.27-0.18-0.45C128.6,119.65,128.66,119.5,128.78,119.38z"/>
</g>
<path class="st1" d="M131.32,119.3c0.13-0.13,0.29-0.2,0.47-0.2c0.19,0,0.35,0.06,0.48,0.2c0.13,0.13,0.19,0.29,0.19,0.47
	c0,0.19-0.06,0.35-0.19,0.48c-0.13,0.13-0.29,0.19-0.48,0.19c-0.19,0-0.34-0.06-0.47-0.19c-0.13-0.13-0.19-0.29-0.19-0.48
	C131.13,119.59,131.19,119.43,131.32,119.3z"/>
<path class="st1" d="M133.93,116.91c0.12-0.12,0.27-0.18,0.44-0.18c0.18,0,0.32,0.06,0.44,0.18c0.12,0.12,0.18,0.27,0.18,0.44
	c0,0.17-0.06,0.32-0.18,0.44c-0.12,0.12-0.27,0.18-0.44,0.18c-0.17,0-0.32-0.06-0.44-0.18c-0.12-0.12-0.18-0.27-0.18-0.44
	C133.75,117.18,133.81,117.03,133.93,116.91z M133.93,119.38c0.12-0.12,0.27-0.18,0.44-0.18c0.18,0,0.33,0.06,0.45,0.18
	c0.12,0.12,0.18,0.27,0.18,0.44c0,0.18-0.06,0.32-0.18,0.45c-0.12,0.12-0.27,0.18-0.45,0.18c-0.17,0-0.32-0.06-0.44-0.18
	c-0.12-0.12-0.18-0.27-0.18-0.45C133.75,119.65,133.81,119.5,133.93,119.38z"/>
<g>
	<path class="st1" d="M105.61,116.91c0.12-0.12,0.27-0.18,0.44-0.18c0.18,0,0.32,0.06,0.44,0.18c0.12,0.12,0.18,0.27,0.18,0.44
		c0,0.17-0.06,0.32-0.18,0.44c-0.12,0.12-0.27,0.18-0.44,0.18c-0.17,0-0.32-0.06-0.44-0.18c-0.12-0.12-0.18-0.27-0.18-0.44
		C105.43,117.18,105.49,117.03,105.61,116.91z M105.61,119.38c0.12-0.12,0.27-0.18,0.44-0.18c0.18,0,0.33,0.06,0.45,0.18
		c0.12,0.12,0.18,0.27,0.18,0.44c0,0.18-0.06,0.32-0.18,0.45c-0.12,0.12-0.27,0.18-0.45,0.18c-0.17,0-0.32-0.06-0.44-0.18
		c-0.12-0.12-0.18-0.27-0.18-0.45C105.43,119.65,105.49,119.5,105.61,119.38z"/>
</g>
<path class="st1" d="M108.15,119.3c0.13-0.13,0.29-0.2,0.47-0.2c0.19,0,0.35,0.06,0.48,0.2c0.13,0.13,0.19,0.29,0.19,0.47
	c0,0.19-0.06,0.35-0.19,0.48c-0.13,0.13-0.29,0.19-0.48,0.19c-0.19,0-0.34-0.06-0.47-0.19c-0.13-0.13-0.19-0.29-0.19-0.48
	C107.96,119.59,108.02,119.43,108.15,119.3z"/>
<path class="st1" d="M110.76,116.91c0.12-0.12,0.27-0.18,0.44-0.18c0.18,0,0.32,0.06,0.44,0.18c0.12,0.12,0.18,0.27,0.18,0.44
	c0,0.17-0.06,0.32-0.18,0.44c-0.12,0.12-0.27,0.18-0.44,0.18c-0.17,0-0.32-0.06-0.44-0.18c-0.12-0.12-0.18-0.27-0.18-0.44
	C110.58,117.18,110.64,117.03,110.76,116.91z M110.76,119.38c0.12-0.12,0.27-0.18,0.44-0.18c0.18,0,0.33,0.06,0.45,0.18
	c0.12,0.12,0.18,0.27,0.18,0.44c0,0.18-0.06,0.32-0.18,0.45c-0.12,0.12-0.27,0.18-0.45,0.18c-0.17,0-0.32-0.06-0.44-0.18
	c-0.12-0.12-0.18-0.27-0.18-0.45C110.58,119.65,110.64,119.5,110.76,119.38z"/>
<g>
	<path class="st1" d="M113.34,116.91c0.12-0.12,0.27-0.18,0.44-0.18c0.18,0,0.32,0.06,0.44,0.18c0.12,0.12,0.18,0.27,0.18,0.44
		c0,0.17-0.06,0.32-0.18,0.44c-0.12,0.12-0.27,0.18-0.44,0.18c-0.17,0-0.32-0.06-0.44-0.18c-0.12-0.12-0.18-0.27-0.18-0.44
		C113.16,117.18,113.22,117.03,113.34,116.91z M113.34,119.38c0.12-0.12,0.27-0.18,0.44-0.18c0.18,0,0.33,0.06,0.45,0.18
		c0.12,0.12,0.18,0.27,0.18,0.44c0,0.18-0.06,0.32-0.18,0.45c-0.12,0.12-0.27,0.18-0.45,0.18c-0.17,0-0.32-0.06-0.44-0.18
		c-0.12-0.12-0.18-0.27-0.18-0.45C113.16,119.65,113.22,119.5,113.34,119.38z"/>
</g>
<path class="st1" d="M115.88,119.3c0.13-0.13,0.29-0.2,0.47-0.2c0.19,0,0.35,0.06,0.48,0.2c0.13,0.13,0.19,0.29,0.19,0.47
	c0,0.19-0.06,0.35-0.19,0.48c-0.13,0.13-0.29,0.19-0.48,0.19c-0.19,0-0.34-0.06-0.47-0.19c-0.13-0.13-0.19-0.29-0.19-0.48
	C115.68,119.59,115.75,119.43,115.88,119.3z"/>
<path class="st1" d="M118.48,116.91c0.12-0.12,0.27-0.18,0.44-0.18c0.18,0,0.32,0.06,0.44,0.18c0.12,0.12,0.18,0.27,0.18,0.44
	c0,0.17-0.06,0.32-0.18,0.44c-0.12,0.12-0.27,0.18-0.44,0.18c-0.17,0-0.32-0.06-0.44-0.18c-0.12-0.12-0.18-0.27-0.18-0.44
	C118.3,117.18,118.36,117.03,118.48,116.91z M118.48,119.38c0.12-0.12,0.27-0.18,0.44-0.18c0.18,0,0.33,0.06,0.45,0.18
	c0.12,0.12,0.18,0.27,0.18,0.44c0,0.18-0.06,0.32-0.18,0.45c-0.12,0.12-0.27,0.18-0.45,0.18c-0.17,0-0.32-0.06-0.44-0.18
	c-0.12-0.12-0.18-0.27-0.18-0.45C118.3,119.65,118.36,119.5,118.48,119.38z"/>
<g>
	<path class="st1" d="M90.16,116.91c0.12-0.12,0.27-0.18,0.44-0.18c0.18,0,0.32,0.06,0.44,0.18c0.12,0.12,0.18,0.27,0.18,0.44
		c0,0.17-0.06,0.32-0.18,0.44c-0.12,0.12-0.27,0.18-0.44,0.18c-0.17,0-0.32-0.06-0.44-0.18c-0.12-0.12-0.18-0.27-0.18-0.44
		C89.98,117.18,90.04,117.03,90.16,116.91z M90.16,119.38c0.12-0.12,0.27-0.18,0.44-0.18c0.18,0,0.33,0.06,0.45,0.18
		c0.12,0.12,0.18,0.27,0.18,0.44c0,0.18-0.06,0.32-0.18,0.45c-0.12,0.12-0.27,0.18-0.45,0.18c-0.17,0-0.32-0.06-0.44-0.18
		c-0.12-0.12-0.18-0.27-0.18-0.45C89.98,119.65,90.04,119.5,90.16,119.38z"/>
</g>
<path class="st1" d="M92.7,119.3c0.13-0.13,0.29-0.2,0.47-0.2c0.19,0,0.35,0.06,0.48,0.2c0.13,0.13,0.19,0.29,0.19,0.47
	c0,0.19-0.06,0.35-0.19,0.48c-0.13,0.13-0.29,0.19-0.48,0.19c-0.19,0-0.34-0.06-0.47-0.19c-0.13-0.13-0.19-0.29-0.19-0.48
	C92.51,119.59,92.58,119.43,92.7,119.3z"/>
<path class="st1" d="M95.31,116.91c0.12-0.12,0.27-0.18,0.44-0.18c0.18,0,0.32,0.06,0.44,0.18c0.12,0.12,0.18,0.27,0.18,0.44
	c0,0.17-0.06,0.32-0.18,0.44c-0.12,0.12-0.27,0.18-0.44,0.18c-0.17,0-0.32-0.06-0.44-0.18c-0.12-0.12-0.18-0.27-0.18-0.44
	C95.13,117.18,95.19,117.03,95.31,116.91z M95.31,119.38c0.12-0.12,0.27-0.18,0.44-0.18c0.18,0,0.33,0.06,0.45,0.18
	c0.12,0.12,0.18,0.27,0.18,0.44c0,0.18-0.06,0.32-0.18,0.45c-0.12,0.12-0.27,0.18-0.45,0.18c-0.17,0-0.32-0.06-0.44-0.18
	c-0.12-0.12-0.18-0.27-0.18-0.45C95.13,119.65,95.19,119.5,95.31,119.38z"/>
<g>
	<path class="st1" d="M97.89,116.91c0.12-0.12,0.27-0.18,0.44-0.18c0.18,0,0.32,0.06,0.44,0.18c0.12,0.12,0.18,0.27,0.18,0.44
		c0,0.17-0.06,0.32-0.18,0.44c-0.12,0.12-0.27,0.18-0.44,0.18c-0.17,0-0.32-0.06-0.44-0.18c-0.12-0.12-0.18-0.27-0.18-0.44
		C97.71,117.18,97.77,117.03,97.89,116.91z M97.89,119.38c0.12-0.12,0.27-0.18,0.44-0.18c0.18,0,0.33,0.06,0.45,0.18
		c0.12,0.12,0.18,0.27,0.18,0.44c0,0.18-0.06,0.32-0.18,0.45c-0.12,0.12-0.27,0.18-0.45,0.18c-0.17,0-0.32-0.06-0.44-0.18
		c-0.12-0.12-0.18-0.27-0.18-0.45C97.71,119.65,97.77,119.5,97.89,119.38z"/>
</g>
<path class="st1" d="M100.43,119.3c0.13-0.13,0.29-0.2,0.47-0.2c0.19,0,0.35,0.06,0.48,0.2c0.13,0.13,0.19,0.29,0.19,0.47
	c0,0.19-0.06,0.35-0.19,0.48c-0.13,0.13-0.29,0.19-0.48,0.19c-0.19,0-0.34-0.06-0.47-0.19c-0.13-0.13-0.19-0.29-0.19-0.48
	C100.23,119.59,100.3,119.43,100.43,119.3z"/>
<path class="st1" d="M103.04,116.91c0.12-0.12,0.27-0.18,0.44-0.18c0.18,0,0.32,0.06,0.44,0.18c0.12,0.12,0.18,0.27,0.18,0.44
	c0,0.17-0.06,0.32-0.18,0.44c-0.12,0.12-0.27,0.18-0.44,0.18c-0.17,0-0.32-0.06-0.44-0.18c-0.12-0.12-0.18-0.27-0.18-0.44
	C102.86,117.18,102.92,117.03,103.04,116.91z M103.04,119.38c0.12-0.12,0.27-0.18,0.44-0.18c0.18,0,0.33,0.06,0.45,0.18
	c0.12,0.12,0.18,0.27,0.18,0.44c0,0.18-0.06,0.32-0.18,0.45c-0.12,0.12-0.27,0.18-0.45,0.18c-0.17,0-0.32-0.06-0.44-0.18
	c-0.12-0.12-0.18-0.27-0.18-0.45C102.86,119.65,102.92,119.5,103.04,119.38z"/>
<path class="st1" d="M139.61,17.05L139.61,17.05c-1.7-2.31-4.28-4.04-7.07-4.76c-0.06-0.01-0.12-0.02-0.18-0.02
	c-0.44,0-0.87,0.31-0.96,0.74c-0.11,0.29-0.08,0.59,0.06,0.85c0.13,0.25,0.35,0.42,0.59,0.46c2.96,0.77,5.51,2.86,6.84,5.59
	c1.1,2.24,1.38,4.9,0.77,7.3c-0.06,0.25,0,0.53,0.15,0.75c0.16,0.23,0.39,0.38,0.65,0.41c0.52,0.15,1.09-0.14,1.25-0.61
	C142.65,24.17,141.85,20.05,139.61,17.05z"/>
<path class="st1" d="M135.47,26.69c0.16,0.25,0.4,0.41,0.68,0.46c0.27,0.08,0.54,0.05,0.78-0.08c0.24-0.13,0.41-0.34,0.48-0.57
	c0.62-2.25,0.15-4.83-1.23-6.7c-1.17-1.57-2.86-2.67-4.63-3.02c-0.06-0.01-0.11-0.02-0.16-0.02c-0.39,0-0.64,0.28-0.74,0.41
	c-0.26,0.34-0.32,0.8-0.15,1.13c0.13,0.28,0.41,0.5,0.75,0.58c1.59,0.42,2.95,1.51,3.66,2.94c0.64,1.26,0.79,2.73,0.44,4.13
	C135.28,26.19,135.32,26.46,135.47,26.69z"/>
</svg>
