<?xml version="1.0" encoding="utf-8"?>
<!-- Generator: Adobe Illustrator 24.0.0, SVG Export Plug-In . SVG Version: 6.00 Build 0)  -->
<svg version="1.1" id="Layer_1" xmlns="http://www.w3.org/2000/svg" xmlns:xlink="http://www.w3.org/1999/xlink" x="0px" y="0px"
	 viewBox="0 0 80.5 62.27" style="enable-background:new 0 0 80.5 62.27;" xml:space="preserve">
<style type="text/css">
	.st0{fill:#A0A2A4;}
	.st1{fill:#FFFFFF;}
	.st2{fill:#0079C2;}
	.st3{opacity:0.3;}
	.st4{opacity:0.8;fill:#0079C2;}
	.st5{opacity:0.5;fill:#FFFFFF;}
</style>
<g>
	<path class="st0" d="M35.41,58.84c0.16,0.09,0.29,0.2,0.38,0.35c0.09,0.15,0.13,0.31,0.13,0.49c0,0.2-0.05,0.4-0.14,0.59
		c-0.09,0.19-0.24,0.4-0.45,0.63c-0.21,0.23-0.5,0.52-0.88,0.86h1.56l-0.06,0.45H33.8v-0.42c0.43-0.41,0.75-0.74,0.96-0.97
		c0.21-0.23,0.36-0.43,0.45-0.6c0.09-0.17,0.13-0.33,0.13-0.5c0-0.17-0.05-0.31-0.15-0.41c-0.1-0.1-0.24-0.15-0.41-0.15
		c-0.15,0-0.28,0.03-0.38,0.08c-0.1,0.05-0.21,0.15-0.32,0.28l-0.36-0.28c0.14-0.18,0.29-0.31,0.47-0.4
		c0.18-0.09,0.38-0.13,0.63-0.13C35.05,58.71,35.25,58.75,35.41,58.84z"/>
	<path class="st0" d="M38.82,59.17c0.2,0.31,0.3,0.75,0.3,1.32c0,0.57-0.1,1.01-0.3,1.32c-0.2,0.31-0.49,0.46-0.87,0.46
		c-0.38,0-0.67-0.15-0.87-0.46c-0.2-0.31-0.3-0.75-0.3-1.32c0-0.57,0.1-1.01,0.3-1.32c0.2-0.31,0.49-0.46,0.87-0.46
		C38.33,58.71,38.62,58.86,38.82,59.17z M37.5,59.46c-0.1,0.22-0.15,0.56-0.15,1.03c0,0.48,0.05,0.82,0.15,1.04
		c0.1,0.22,0.25,0.32,0.45,0.32c0.2,0,0.35-0.11,0.45-0.32c0.1-0.22,0.15-0.56,0.15-1.04c0-0.47-0.05-0.82-0.15-1.03
		c-0.1-0.21-0.25-0.32-0.45-0.32C37.75,59.13,37.6,59.24,37.5,59.46z M38.18,60.26c0.06,0.06,0.09,0.14,0.09,0.23
		c0,0.09-0.03,0.17-0.09,0.23c-0.06,0.06-0.14,0.09-0.23,0.09c-0.09,0-0.17-0.03-0.23-0.09c-0.06-0.06-0.09-0.14-0.09-0.23
		c0-0.09,0.03-0.17,0.09-0.23c0.06-0.06,0.14-0.09,0.23-0.09C38.04,60.17,38.12,60.2,38.18,60.26z"/>
	<path class="st1" d="M41.38,58.84c0.16,0.09,0.29,0.2,0.38,0.35c0.09,0.15,0.13,0.31,0.13,0.49c0,0.2-0.05,0.4-0.14,0.59
		c-0.09,0.19-0.24,0.4-0.45,0.63c-0.21,0.23-0.5,0.52-0.88,0.86h1.56l-0.06,0.45h-2.13v-0.42c0.43-0.41,0.75-0.74,0.96-0.97
		c0.21-0.23,0.36-0.43,0.45-0.6c0.09-0.17,0.13-0.33,0.13-0.5c0-0.17-0.05-0.31-0.15-0.41c-0.1-0.1-0.24-0.15-0.41-0.15
		c-0.15,0-0.28,0.03-0.38,0.08c-0.1,0.05-0.21,0.15-0.32,0.28l-0.36-0.28c0.14-0.18,0.29-0.31,0.47-0.4
		c0.18-0.09,0.38-0.13,0.63-0.13C41.02,58.71,41.21,58.75,41.38,58.84z"/>
	<path class="st1" d="M44.78,59.17c0.2,0.31,0.3,0.75,0.3,1.32c0,0.57-0.1,1.01-0.3,1.32c-0.2,0.31-0.49,0.46-0.87,0.46
		s-0.67-0.15-0.87-0.46c-0.2-0.31-0.3-0.75-0.3-1.32c0-0.57,0.1-1.01,0.3-1.32c0.2-0.31,0.49-0.46,0.87-0.46
		S44.58,58.86,44.78,59.17z M43.46,59.46c-0.1,0.22-0.15,0.56-0.15,1.03c0,0.48,0.05,0.82,0.15,1.04c0.1,0.22,0.25,0.32,0.45,0.32
		c0.2,0,0.35-0.11,0.45-0.32c0.1-0.22,0.15-0.56,0.15-1.04c0-0.47-0.05-0.82-0.15-1.03c-0.1-0.21-0.25-0.32-0.45-0.32
		C43.71,59.13,43.56,59.24,43.46,59.46z M44.15,60.26c0.06,0.06,0.09,0.14,0.09,0.23c0,0.09-0.03,0.17-0.09,0.23
		c-0.06,0.06-0.14,0.09-0.23,0.09c-0.09,0-0.17-0.03-0.23-0.09c-0.06-0.06-0.09-0.14-0.09-0.23c0-0.09,0.03-0.17,0.09-0.23
		c0.06-0.06,0.14-0.09,0.23-0.09C44.01,60.17,44.08,60.2,44.15,60.26z"/>
	<path class="st1" d="M79.73,22.85c0,12.2-9.89,22.08-22.08,22.08s-22.08-9.89-22.08-22.08c0-12.2,9.89-22.08,22.08-22.08
		S79.73,10.65,79.73,22.85z"/>
	<path class="st2" d="M57.65,45.58c-12.53,0-22.73-10.2-22.73-22.73S45.12,0.11,57.65,0.11s22.73,10.2,22.73,22.73
		S70.18,45.58,57.65,45.58z M57.65,1.64c-11.69,0-21.21,9.51-21.21,21.21s9.51,21.21,21.21,21.21s21.21-9.51,21.21-21.21
		S69.34,1.64,57.65,1.64z"/>
	
		<ellipse transform="matrix(0.9692 -0.2462 0.2462 0.9692 -4.9289 6.2643)" class="st2" cx="22.59" cy="22.85" rx="22.48" ry="22.48"/>
	<g class="st3">
		<g>
			<path class="st1" d="M41.83,38.98c-0.12-0.12-0.24-0.24-0.36-0.36c-4.13-4.24-6.41-9.84-6.41-15.76c0-6.04,2.35-11.71,6.62-15.97
				l0.72,0.72c-4.07,4.07-6.32,9.49-6.32,15.25c0,5.66,2.17,11,6.12,15.05c0.11,0.12,0.23,0.23,0.35,0.35L41.83,38.98z"/>
		</g>
	</g>
	<g class="st3">
		<g>
			<path class="st1" d="M39.03,11.96l-0.88-0.51c0.09-0.15,0.18-0.3,0.27-0.45c3.11-5.04,7.98-8.62,13.72-10.06
				c5.85-1.47,11.93-0.58,17.11,2.52l-0.52,0.88c-4.95-2.96-10.75-3.81-16.33-2.4c-5.48,1.38-10.14,4.79-13.1,9.61
				C39.2,11.67,39.11,11.81,39.03,11.96z"/>
		</g>
	</g>
	<g class="st3">
		<g>
			<path class="st1" d="M78.07,15.89c-1.86-5.45-5.73-9.86-10.9-12.4c-5.07-2.49-10.83-2.9-16.21-1.15
				c-0.15,0.05-0.31,0.1-0.47,0.16l-0.34-0.96c0.16-0.06,0.33-0.11,0.49-0.17c5.63-1.84,11.66-1.41,16.98,1.2
				c5.42,2.66,9.47,7.28,11.41,12.99L78.07,15.89z"/>
		</g>
	</g>
	<g class="st3">
		<g>
			<path class="st1" d="M80.07,25.65l-1.01-0.13c0.71-5.72-0.84-11.37-4.38-15.92c-3.47-4.46-8.47-7.35-14.07-8.13
				c-0.16-0.02-0.33-0.04-0.49-0.06l0.11-1.01c0.17,0.02,0.34,0.04,0.51,0.06c5.88,0.81,11.11,3.84,14.75,8.51
				C79.19,13.74,80.82,19.66,80.07,25.65z"/>
		</g>
	</g>
	<g class="st3">
		<g>
			<path class="st1" d="M57.65,45.45c-2.87,0-5.73-0.55-8.47-1.66c-5.59-2.26-9.97-6.57-12.33-12.12l0.94-0.4
				c2.25,5.3,6.43,9.41,11.77,11.57c5.24,2.12,11.01,2.11,16.25-0.03c0.15-0.06,0.3-0.13,0.45-0.19l0.41,0.93
				c-0.16,0.07-0.32,0.14-0.48,0.2C63.45,44.88,60.55,45.45,57.65,45.45z"/>
		</g>
	</g>
	<g class="st3">
		<g>
			<path class="st1" d="M59.37,45.37l-0.08-1.02c5.74-0.44,10.97-3.09,14.73-7.46c3.68-4.29,5.51-9.76,5.16-15.41
				c-0.01-0.16-0.02-0.33-0.04-0.49l1.02-0.1c0.02,0.17,0.03,0.35,0.04,0.52c0.37,5.91-1.54,11.64-5.4,16.14
				C70.87,42.14,65.39,44.91,59.37,45.37z"/>
		</g>
	</g>
	<g class="st3">
		<g>
			<path class="st1" d="M22.58,45.01c-3.25,0-6.49-0.72-9.51-2.16C7.73,40.3,3.69,35.83,1.72,30.26l0.96-0.34
				c1.89,5.32,5.73,9.58,10.83,12.01c5,2.38,10.64,2.71,15.89,0.93c0.15-0.05,0.3-0.11,0.45-0.16l0.36,0.96
				c-0.16,0.06-0.32,0.12-0.48,0.17C27.39,44.61,24.98,45.01,22.58,45.01z"/>
		</g>
	</g>
	<g class="st3">
		<g>
			<path class="st1" d="M4.28,35.31c-0.1-0.14-0.19-0.28-0.28-0.42c-3.16-4.88-4.27-10.7-3.13-16.39c1.16-5.8,4.52-10.8,9.44-14.08
				l0.57,0.85c-4.7,3.13-7.89,7.9-9,13.43c-1.09,5.43-0.03,10.98,2.98,15.64c0.09,0.13,0.18,0.27,0.27,0.4L4.28,35.31z"/>
		</g>
	</g>
	<g class="st3">
		<g>
			<path class="st1" d="M1.58,20.61l-1.02-0.1C0.58,20.34,0.6,20.17,0.62,20C1.37,14.24,4.29,9.08,8.84,5.48
				c4.64-3.67,10.43-5.32,16.31-4.63l-0.12,1.01C19.43,1.2,13.9,2.77,9.48,6.28c-4.34,3.44-7.13,8.36-7.84,13.85
				C1.61,20.29,1.59,20.45,1.58,20.61z"/>
		</g>
	</g>
	<g class="st3">
		<g>
			<path class="st1" d="M4.68,11.64L3.81,11.1c0.09-0.14,0.18-0.29,0.27-0.43c3.19-4.85,8.07-8.21,13.75-9.46
				c5.78-1.27,11.71-0.22,16.69,2.97l-0.55,0.86C29.21,2,23.56,1,18.05,2.21C12.64,3.4,7.98,6.6,4.94,11.23
				C4.85,11.37,4.76,11.5,4.68,11.64z"/>
		</g>
	</g>
	<g class="st3">
		<g>
			<path class="st1" d="M22.61,45c-0.32,0-0.65-0.01-0.97-0.02l0.04-1.02c5.64,0.25,11.03-1.73,15.19-5.54
				c4.08-3.75,6.5-8.85,6.81-14.39c0.01-0.16,0.02-0.32,0.02-0.48l1.02,0.02c0,0.17-0.01,0.34-0.02,0.51
				c-0.33,5.8-2.86,11.15-7.14,15.08C33.45,42.95,28.17,45,22.61,45z"/>
		</g>
	</g>
	<g class="st3">
		<g>
			<path class="st1" d="M43.26,30.82l-0.95-0.37c2.03-5.27,1.89-11.01-0.4-16.17c-2.25-5.06-6.32-8.99-11.46-11.05
				C30.3,3.17,30.15,3.11,30,3.06l0.35-0.96c0.16,0.06,0.32,0.12,0.48,0.18c5.39,2.16,9.66,6.27,12.01,11.58
				C45.24,19.28,45.39,25.3,43.26,30.82z"/>
		</g>
	</g>
	<path class="st4" d="M68.8,12.47c0-1.43-1.16-2.59-2.59-2.59H49.09c-1.43,0-2.59,1.16-2.59,2.59c0,1.43,1.16,2.59,2.59,2.59h17.11
		C67.64,15.06,68.8,13.9,68.8,12.47z M47.3,12.47c0-0.95,0.77-1.72,1.72-1.72c0.95,0,1.72,0.77,1.72,1.72
		c0,0.95-0.77,1.72-1.72,1.72C48.07,14.19,47.3,13.42,47.3,12.47z M64.47,12.47c0-0.95,0.77-1.72,1.72-1.72
		c0.95,0,1.72,0.77,1.72,1.72c0,0.95-0.77,1.72-1.72,1.72C65.24,14.19,64.47,13.42,64.47,12.47z"/>
	<path class="st4" d="M68.8,33.08c0-1.43-1.16-2.59-2.59-2.59H49.09c-1.43,0-2.59,1.16-2.59,2.59c0,1.43,1.16,2.59,2.59,2.59h17.11
		C67.64,35.67,68.8,34.51,68.8,33.08z M47.3,33.08c0-0.95,0.77-1.72,1.72-1.72c0.95,0,1.72,0.77,1.72,1.72
		c0,0.95-0.77,1.72-1.72,1.72C48.07,34.8,47.3,34.03,47.3,33.08z M64.47,33.08c0-0.95,0.77-1.72,1.72-1.72
		c0.95,0,1.72,0.77,1.72,1.72c0,0.95-0.77,1.72-1.72,1.72C65.24,34.8,64.47,34.03,64.47,33.08z"/>
	<path class="st4" d="M68.04,10.63c-1.01-1.01-2.65-1.01-3.66,0L47.26,31.25c-1.01,1.01-1.01,2.65,0,3.66s2.65,1.01,3.66,0
		L68.04,14.3C69.05,13.29,69.05,11.65,68.04,10.63z M47.82,34.35c-0.67-0.67-0.67-1.76,0-2.43c0.67-0.67,1.76-0.67,2.43,0
		c0.67,0.67,0.67,1.76,0,2.43C49.58,35.03,48.49,35.03,47.82,34.35z M64.98,13.69c-0.67-0.67-0.67-1.76,0-2.43
		c0.67-0.67,1.76-0.67,2.43,0c0.67,0.67,0.67,1.76,0,2.43C66.74,14.36,65.65,14.36,64.98,13.69z"/>
	<g>
		<path class="st5" d="M12.72,9.82c-1.43,0-2.59,1.16-2.59,2.59v20.62c0,1.43,1.16,2.59,2.59,2.59c1.43,0,2.59-1.16,2.59-2.59V12.41
			C15.31,10.98,14.15,9.82,12.72,9.82z M12.72,34.82c-0.95,0-1.72-0.77-1.72-1.72c0-0.95,0.77-1.72,1.72-1.72
			c0.95,0,1.72,0.77,1.72,1.72C14.44,34.05,13.67,34.82,12.72,34.82z M12.72,14.14c-0.95,0-1.72-0.77-1.72-1.72
			c0-0.95,0.77-1.72,1.72-1.72c0.95,0,1.72,0.77,1.72,1.72C14.44,13.37,13.67,14.14,12.72,14.14z"/>
		<path class="st5" d="M10.88,10.63c-1.01,1.01-1.01,2.65,0,3.66l10.32,10.32c1.01,1.01,2.65,1.01,3.66,0
			c1.01-1.01,1.01-2.65,0-3.66L14.55,10.63C13.54,9.62,11.9,9.62,10.88,10.63z M24.31,24.06c-0.67,0.67-1.76,0.67-2.43,0
			c-0.67-0.67-0.67-1.76,0-2.43c0.67-0.67,1.76-0.67,2.43,0C24.98,22.3,24.98,23.39,24.31,24.06z M13.94,13.69
			c-0.67,0.67-1.76,0.67-2.43,0c-0.67-0.67-0.67-1.76,0-2.43c0.67-0.67,1.76-0.67,2.43,0C14.61,11.93,14.61,13.02,13.94,13.69z"/>
		<path class="st5" d="M35.31,10.63c-1.01-1.01-2.65-1.01-3.66,0L21.33,20.96c-1.01,1.01-1.01,2.65,0,3.66
			c1.01,1.01,2.65,1.01,3.66,0L35.31,14.3C36.33,13.29,36.33,11.65,35.31,10.63z M21.89,24.06c-0.67-0.67-0.67-1.76,0-2.43
			c0.67-0.67,1.76-0.67,2.43,0c0.67,0.67,0.67,1.76,0,2.43C23.65,24.73,22.56,24.73,21.89,24.06z M32.26,13.69
			c-0.67-0.67-0.67-1.76,0-2.43c0.67-0.67,1.76-0.67,2.43,0c0.67,0.67,0.67,1.76,0,2.43C34.02,14.36,32.93,14.36,32.26,13.69z"/>
		<path class="st5" d="M33.48,9.88c-1.43,0-2.59,1.16-2.59,2.59v20.62c0,1.43,1.16,2.59,2.59,2.59c1.43,0,2.59-1.16,2.59-2.59V12.47
			C36.07,11.04,34.91,9.88,33.48,9.88z M33.48,34.88c-0.95,0-1.72-0.77-1.72-1.72c0-0.95,0.77-1.72,1.72-1.72
			c0.95,0,1.72,0.77,1.72,1.72C35.2,34.11,34.43,34.88,33.48,34.88z M33.48,14.2c-0.95,0-1.72-0.77-1.72-1.72
			c0-0.95,0.77-1.72,1.72-1.72c0.95,0,1.72,0.77,1.72,1.72C35.2,13.43,34.43,14.2,33.48,14.2z"/>
	</g>
	<g>
		<g>
			<path class="st1" d="M66.21,15.25H49.09c-1.53,0-2.78-1.25-2.78-2.78s1.25-2.78,2.78-2.78h17.11c1.53,0,2.78,1.25,2.78,2.78
				S67.74,15.25,66.21,15.25z M49.09,10.07c-1.32,0-2.4,1.08-2.4,2.4c0,1.32,1.08,2.4,2.4,2.4h17.11c1.32,0,2.4-1.08,2.4-2.4
				c0-1.32-1.08-2.4-2.4-2.4H49.09z M66.19,14.38c-1.05,0-1.91-0.86-1.91-1.91c0-1.05,0.86-1.91,1.91-1.91
				c1.05,0,1.91,0.86,1.91,1.91C68.1,13.52,67.25,14.38,66.19,14.38z M66.19,10.94c-0.84,0-1.53,0.69-1.53,1.53
				c0,0.84,0.69,1.53,1.53,1.53c0.84,0,1.53-0.69,1.53-1.53C67.72,11.62,67.04,10.94,66.19,10.94z M49.02,14.38
				c-1.05,0-1.91-0.86-1.91-1.91c0-1.05,0.86-1.91,1.91-1.91c1.05,0,1.91,0.86,1.91,1.91C50.93,13.52,50.07,14.38,49.02,14.38z
				 M49.02,10.94c-0.84,0-1.53,0.69-1.53,1.53c0,0.84,0.69,1.53,1.53,1.53c0.84,0,1.53-0.69,1.53-1.53
				C50.55,11.62,49.86,10.94,49.02,10.94z"/>
		</g>
	</g>
	<g>
		<g>
			<path class="st1" d="M66.21,35.86H49.09c-1.53,0-2.78-1.25-2.78-2.78c0-1.53,1.25-2.78,2.78-2.78h17.11
				c1.53,0,2.78,1.25,2.78,2.78C68.99,34.62,67.74,35.86,66.21,35.86z M49.09,30.68c-1.32,0-2.4,1.08-2.4,2.4
				c0,1.32,1.08,2.4,2.4,2.4h17.11c1.32,0,2.4-1.08,2.4-2.4c0-1.32-1.08-2.4-2.4-2.4H49.09z M66.19,34.99
				c-1.05,0-1.91-0.86-1.91-1.91c0-1.05,0.86-1.91,1.91-1.91c1.05,0,1.91,0.86,1.91,1.91C68.1,34.14,67.25,34.99,66.19,34.99z
				 M66.19,31.55c-0.84,0-1.53,0.69-1.53,1.53c0,0.84,0.69,1.53,1.53,1.53c0.84,0,1.53-0.69,1.53-1.53
				C67.72,32.24,67.04,31.55,66.19,31.55z M49.02,34.99c-1.05,0-1.91-0.86-1.91-1.91c0-1.05,0.86-1.91,1.91-1.91
				c1.05,0,1.91,0.86,1.91,1.91C50.93,34.14,50.07,34.99,49.02,34.99z M49.02,31.55c-0.84,0-1.53,0.69-1.53,1.53
				c0,0.84,0.69,1.53,1.53,1.53c0.84,0,1.53-0.69,1.53-1.53C50.55,32.24,49.86,31.55,49.02,31.55z"/>
		</g>
	</g>
	<g>
		<g>
			<path class="st1" d="M49.09,35.86c-0.74,0-1.44-0.29-1.97-0.81c-1.08-1.08-1.08-2.85,0-3.93l17.1-20.6
				c0.54-0.54,1.24-0.83,1.98-0.83c0.74,0,1.44,0.29,1.97,0.81c0.53,0.53,0.82,1.22,0.82,1.97c0,0.74-0.29,1.44-0.82,1.97
				l-17.1,20.6C50.54,35.57,49.84,35.86,49.09,35.86z M66.21,10.07c-0.64,0-1.24,0.25-1.7,0.7l-17.1,20.6
				c-0.95,0.95-0.95,2.47-0.01,3.41c0.45,0.45,1.06,0.7,1.7,0.7c0.64,0,1.24-0.25,1.7-0.7l17.1-20.6c0.47-0.47,0.71-1.07,0.71-1.71
				c0-0.64-0.25-1.24-0.7-1.7C67.45,10.32,66.85,10.07,66.21,10.07z M49.04,35.05c-0.51,0-0.99-0.2-1.35-0.56
				c-0.36-0.36-0.56-0.84-0.56-1.35c0-0.51,0.2-0.99,0.56-1.35c0.36-0.36,0.84-0.56,1.35-0.56c0.51,0,0.99,0.2,1.35,0.56
				c0.36,0.36,0.56,0.84,0.56,1.35c0,0.51-0.2,0.99-0.56,1.35C50.03,34.85,49.55,35.05,49.04,35.05z M49.04,31.61
				c-0.41,0-0.79,0.16-1.08,0.45c-0.29,0.29-0.45,0.67-0.45,1.08s0.16,0.79,0.45,1.08c0.58,0.58,1.58,0.58,2.16,0
				c0.29-0.29,0.45-0.67,0.45-1.08c0-0.41-0.16-0.79-0.45-1.08C49.83,31.77,49.45,31.61,49.04,31.61z M66.2,14.39
				c-0.51,0-0.99-0.2-1.35-0.56c-0.74-0.75-0.74-1.96,0-2.7c0.72-0.72,1.98-0.72,2.7,0c0.74,0.75,0.74,1.96,0,2.7
				C67.19,14.19,66.71,14.39,66.2,14.39z M66.2,10.95c-0.41,0-0.79,0.16-1.08,0.45c-0.6,0.6-0.6,1.57,0,2.16
				c0.58,0.58,1.58,0.58,2.16,0c0.6-0.6,0.6-1.57,0-2.16C66.99,11.11,66.61,10.95,66.2,10.95z"/>
		</g>
	</g>
	<g>
		<g>
			<path class="st1" d="M12.72,35.74c-1.5,0-2.72-1.22-2.72-2.72V12.41c0-1.5,1.22-2.72,2.72-2.72c1.5,0,2.72,1.22,2.72,2.72v20.62
				C15.44,34.52,14.22,35.74,12.72,35.74z M12.72,9.94c-1.36,0-2.46,1.1-2.46,2.46v20.62c0,1.36,1.1,2.46,2.46,2.46
				c1.36,0,2.46-1.11,2.46-2.46V12.41C15.18,11.05,14.07,9.94,12.72,9.94z M12.72,34.95c-1.02,0-1.85-0.83-1.85-1.85
				c0-1.02,0.83-1.85,1.85-1.85c1.02,0,1.85,0.83,1.85,1.85C14.56,34.12,13.74,34.95,12.72,34.95z M12.72,31.51
				c-0.88,0-1.59,0.71-1.59,1.59c0,0.88,0.71,1.59,1.59,1.59c0.88,0,1.59-0.71,1.59-1.59C14.31,32.22,13.59,31.51,12.72,31.51z
				 M12.72,14.27c-1.02,0-1.85-0.83-1.85-1.85c0-1.02,0.83-1.85,1.85-1.85c1.02,0,1.85,0.83,1.85,1.85
				C14.56,13.44,13.74,14.27,12.72,14.27z M12.72,10.83c-0.88,0-1.59,0.71-1.59,1.59c0,0.88,0.71,1.59,1.59,1.59
				c0.88,0,1.59-0.72,1.59-1.59C14.31,11.54,13.59,10.83,12.72,10.83z"/>
		</g>
	</g>
	<g>
		<g>
			<path class="st1" d="M23.04,25.51c-0.73,0-1.41-0.28-1.92-0.8L10.8,14.39c-0.51-0.51-0.8-1.2-0.8-1.92c0-0.73,0.28-1.41,0.8-1.92
				c0.51-0.51,1.2-0.8,1.92-0.8c0.73,0,1.41,0.28,1.92,0.8l10.32,10.32c0.51,0.51,0.8,1.2,0.8,1.92c0,0.73-0.28,1.41-0.8,1.92
				C24.45,25.22,23.77,25.51,23.04,25.51z M12.72,10c-0.66,0-1.28,0.26-1.74,0.72c-0.47,0.47-0.72,1.08-0.72,1.74
				c0,0.66,0.26,1.28,0.72,1.74L21.3,24.53c0.47,0.47,1.08,0.72,1.74,0.72c0.66,0,1.28-0.26,1.74-0.72
				c0.47-0.46,0.72-1.08,0.72-1.74c0-0.66-0.26-1.28-0.72-1.74L14.46,10.72C13.99,10.26,13.37,10,12.72,10z M23.09,24.69
				c-0.49,0-0.96-0.19-1.31-0.54c-0.72-0.72-0.72-1.89,0-2.61c0.35-0.35,0.81-0.54,1.31-0.54c0.49,0,0.96,0.19,1.31,0.54
				c0.72,0.72,0.72,1.89,0,2.61C24.05,24.5,23.59,24.69,23.09,24.69z M23.09,21.25c-0.43,0-0.83,0.17-1.13,0.47
				c-0.62,0.62-0.62,1.63,0,2.25c0.3,0.3,0.7,0.47,1.13,0.47c0.43,0,0.83-0.17,1.13-0.47c0.62-0.62,0.62-1.63,0-2.25
				C23.92,21.41,23.52,21.25,23.09,21.25z M12.73,14.32c-0.49,0-0.96-0.19-1.31-0.54c-0.72-0.72-0.72-1.89,0-2.61
				c0.35-0.35,0.81-0.54,1.31-0.54c0.49,0,0.96,0.19,1.31,0.54c0.72,0.72,0.72,1.89,0,2.61C13.68,14.13,13.22,14.32,12.73,14.32z
				 M12.73,10.88c-0.43,0-0.83,0.17-1.13,0.47c-0.62,0.62-0.62,1.63,0,2.25c0.3,0.3,0.7,0.47,1.13,0.47c0.43,0,0.83-0.17,1.13-0.47
				c0.62-0.62,0.62-1.63,0-2.25C13.55,11.05,13.15,10.88,12.73,10.88z"/>
		</g>
	</g>
	<g>
		<g>
			<path class="st1" d="M23.16,25.51c-0.73,0-1.41-0.28-1.92-0.8c-0.51-0.51-0.8-1.2-0.8-1.92c0-0.73,0.28-1.41,0.8-1.92
				l10.32-10.32c0.51-0.51,1.2-0.8,1.92-0.8c0.73,0,1.41,0.28,1.92,0.8c0.51,0.51,0.8,1.2,0.8,1.92c0,0.73-0.28,1.41-0.8,1.92
				L25.08,24.71C24.57,25.22,23.89,25.51,23.16,25.51z M33.48,10c-0.66,0-1.28,0.26-1.74,0.72L21.42,21.05
				c-0.47,0.47-0.72,1.08-0.72,1.74c0,0.66,0.26,1.28,0.72,1.74c0.47,0.47,1.08,0.72,1.74,0.72c0.66,0,1.28-0.26,1.74-0.72
				l10.32-10.32c0.47-0.46,0.72-1.08,0.72-1.74c0-0.66-0.26-1.28-0.72-1.74C34.76,10.26,34.14,10,33.48,10z M23.11,24.69
				c-0.49,0-0.96-0.19-1.31-0.54c-0.72-0.72-0.72-1.89,0-2.61c0.35-0.35,0.81-0.54,1.31-0.54c0.49,0,0.96,0.19,1.31,0.54
				c0.72,0.72,0.72,1.89,0,2.61C24.06,24.5,23.6,24.69,23.11,24.69z M23.11,21.25c-0.43,0-0.83,0.17-1.13,0.47
				c-0.62,0.62-0.62,1.63,0,2.25c0.3,0.3,0.7,0.47,1.13,0.47s0.83-0.17,1.13-0.47c0.62-0.62,0.62-1.63,0-2.25
				C23.93,21.41,23.53,21.25,23.11,21.25z M33.47,14.32c-0.49,0-0.96-0.19-1.31-0.54c-0.72-0.72-0.72-1.89,0-2.61
				c0.35-0.35,0.81-0.54,1.31-0.54s0.96,0.19,1.31,0.54c0.72,0.72,0.72,1.89,0,2.61C34.43,14.13,33.97,14.32,33.47,14.32z
				 M33.47,10.88c-0.43,0-0.83,0.17-1.13,0.47c-0.62,0.62-0.62,1.63,0,2.25c0.3,0.3,0.7,0.47,1.13,0.47c0.43,0,0.83-0.17,1.13-0.47
				c0.62-0.62,0.62-1.63,0-2.25C34.3,11.05,33.9,10.88,33.47,10.88z"/>
		</g>
	</g>
	<g>
		<g>
			<path class="st1" d="M33.48,35.8c-1.5,0-2.72-1.22-2.72-2.72V12.47c0-1.5,1.22-2.72,2.72-2.72c1.5,0,2.72,1.22,2.72,2.72v20.62
				C36.2,34.58,34.98,35.8,33.48,35.8z M33.48,10c-1.36,0-2.46,1.11-2.46,2.46v20.62c0,1.36,1.1,2.46,2.46,2.46
				c1.36,0,2.46-1.1,2.46-2.46V12.47C35.94,11.11,34.84,10,33.48,10z M33.48,35.01c-1.02,0-1.85-0.83-1.85-1.85
				c0-1.02,0.83-1.85,1.85-1.85c1.02,0,1.85,0.83,1.85,1.85C35.33,34.18,34.5,35.01,33.48,35.01z M33.48,31.57
				c-0.88,0-1.59,0.71-1.59,1.59c0,0.88,0.71,1.59,1.59,1.59c0.88,0,1.59-0.71,1.59-1.59C35.07,32.28,34.36,31.57,33.48,31.57z
				 M33.48,14.33c-1.02,0-1.85-0.83-1.85-1.85c0-1.02,0.83-1.85,1.85-1.85c1.02,0,1.85,0.83,1.85,1.85
				C35.33,13.5,34.5,14.33,33.48,14.33z M33.48,10.89c-0.88,0-1.59,0.71-1.59,1.59c0,0.88,0.71,1.59,1.59,1.59
				c0.88,0,1.59-0.71,1.59-1.59C35.07,11.6,34.36,10.89,33.48,10.89z"/>
		</g>
	</g>
	<g>
		<path class="st1" d="M10,56.77v-6.96c0-0.07,0.01-0.14,0.04-0.21c0.03-0.07,0.06-0.12,0.11-0.17c0.05-0.05,0.1-0.09,0.17-0.11
			c0.06-0.03,0.13-0.04,0.21-0.04c0.21,0,0.36,0.1,0.47,0.29l3.01,6.02l3.01-6.02c0.12-0.19,0.28-0.29,0.47-0.29
			c0.07,0,0.14,0.01,0.21,0.04c0.07,0.03,0.12,0.06,0.17,0.11c0.05,0.05,0.09,0.11,0.11,0.17c0.03,0.06,0.04,0.13,0.04,0.21v6.96
			c0,0.15-0.05,0.27-0.16,0.38c-0.1,0.1-0.23,0.16-0.38,0.16c-0.15,0-0.27-0.05-0.38-0.16c-0.1-0.1-0.16-0.23-0.16-0.38v-4.71
			l-2.49,4.97c-0.1,0.18-0.26,0.27-0.46,0.27c-0.22,0-0.38-0.11-0.49-0.32l-2.46-4.92v4.71c0,0.15-0.05,0.27-0.16,0.38
			c-0.1,0.1-0.23,0.16-0.38,0.16c-0.15,0-0.27-0.05-0.38-0.16C10.05,57.04,10,56.92,10,56.77z"/>
		<path class="st1" d="M18.46,56.53l2.68-6.89c0.11-0.24,0.28-0.36,0.51-0.36c0.24,0,0.41,0.12,0.51,0.36l2.69,6.92
			c0.03,0.07,0.04,0.14,0.04,0.22c0,0.15-0.05,0.27-0.16,0.38c-0.1,0.1-0.23,0.16-0.38,0.16c-0.15,0-0.27-0.05-0.37-0.16
			c-0.05-0.05-0.09-0.11-0.12-0.17l-0.93-2.38h-2.57l-0.93,2.38c-0.03,0.06-0.07,0.12-0.12,0.17c-0.1,0.1-0.23,0.16-0.38,0.16
			c-0.15,0-0.27-0.05-0.37-0.16c-0.1-0.1-0.15-0.23-0.15-0.38C18.4,56.69,18.42,56.61,18.46,56.53z M22.52,53.53l-0.87-2.25
			l-0.87,2.25H22.52z"/>
		<path class="st1" d="M25.21,49.81c0-0.15,0.05-0.27,0.16-0.38c0.1-0.1,0.23-0.16,0.38-0.16c0.15,0,0.27,0.05,0.38,0.16
			c0.1,0.1,0.16,0.23,0.16,0.38v2.97l3.34-3.34c0.11-0.11,0.24-0.17,0.39-0.17c0.07,0,0.14,0.01,0.21,0.04
			c0.07,0.03,0.12,0.06,0.17,0.11c0.05,0.05,0.09,0.11,0.11,0.17c0.03,0.06,0.04,0.13,0.04,0.21c0,0.15-0.05,0.27-0.16,0.38
			l-2.63,2.63l2.68,3.64c0.07,0.09,0.1,0.19,0.1,0.3c0,0.07-0.01,0.14-0.04,0.21c-0.03,0.07-0.06,0.13-0.11,0.18
			c-0.05,0.05-0.1,0.09-0.16,0.12c-0.06,0.03-0.13,0.04-0.21,0.04c-0.2,0-0.35-0.08-0.45-0.23l-2.58-3.5l-0.71,0.71v2.48
			c0,0.15-0.05,0.27-0.16,0.38c-0.1,0.1-0.23,0.16-0.38,0.16c-0.15,0-0.27-0.05-0.38-0.16c-0.1-0.1-0.16-0.23-0.16-0.38V49.81z"/>
		<path class="st1" d="M36,56.24c0.15,0,0.27,0.05,0.38,0.16c0.1,0.1,0.15,0.23,0.15,0.38c0,0.15-0.05,0.27-0.15,0.38
			c-0.1,0.1-0.23,0.16-0.38,0.16h-4.64c-0.08,0-0.15-0.01-0.21-0.04c-0.06-0.03-0.12-0.06-0.17-0.11c-0.05-0.05-0.09-0.1-0.11-0.17
			c-0.03-0.06-0.04-0.13-0.04-0.21v-6.96c0-0.07,0.01-0.14,0.04-0.21c0.03-0.07,0.06-0.12,0.11-0.17c0.05-0.05,0.11-0.09,0.17-0.11
			c0.06-0.03,0.13-0.04,0.21-0.04H36c0.15,0,0.27,0.05,0.38,0.16c0.1,0.1,0.15,0.23,0.15,0.38c0,0.15-0.05,0.27-0.15,0.38
			c-0.1,0.1-0.23,0.16-0.38,0.16h-4.11v2.42h2.95c0.15,0,0.27,0.05,0.38,0.15c0.1,0.1,0.15,0.23,0.15,0.38
			c0,0.15-0.05,0.27-0.15,0.38c-0.1,0.1-0.23,0.15-0.38,0.15h-2.95v2.42H36z"/>
	</g>
	<g>
		<path class="st0" d="M36.26,49.28h5.42c0.07,0,0.14,0.01,0.21,0.04c0.07,0.03,0.12,0.06,0.17,0.11c0.05,0.05,0.09,0.11,0.11,0.17
			c0.03,0.06,0.04,0.13,0.04,0.21c0,0.11-0.03,0.21-0.1,0.31l-4.76,6.12h4.33c0.15,0,0.28,0.06,0.38,0.16
			c0.1,0.1,0.15,0.23,0.15,0.38c0,0.15-0.05,0.27-0.15,0.37c-0.1,0.1-0.23,0.15-0.37,0.15h-5.43c-0.08,0-0.15-0.01-0.21-0.04
			c-0.06-0.03-0.12-0.06-0.17-0.11c-0.05-0.05-0.09-0.1-0.11-0.17c-0.03-0.06-0.04-0.13-0.04-0.21c0-0.13,0.04-0.24,0.11-0.33
			l4.75-6.1h-4.33c-0.14,0-0.27-0.05-0.37-0.16c-0.11-0.1-0.16-0.23-0.16-0.38c0-0.15,0.05-0.27,0.16-0.38
			C35.99,49.33,36.12,49.28,36.26,49.28z"/>
		<path class="st0" d="M43.6,49.81v4.64c0,0.24,0.05,0.48,0.14,0.69c0.09,0.22,0.22,0.41,0.38,0.57c0.16,0.16,0.35,0.29,0.57,0.39
			c0.22,0.1,0.45,0.14,0.7,0.14c0.25,0,0.48-0.05,0.7-0.14c0.22-0.09,0.41-0.22,0.57-0.39c0.16-0.16,0.29-0.35,0.38-0.57
			c0.09-0.22,0.14-0.45,0.14-0.69v-4.64c0-0.15,0.05-0.27,0.16-0.38c0.1-0.1,0.23-0.16,0.38-0.16s0.27,0.05,0.38,0.16
			c0.1,0.1,0.16,0.23,0.16,0.38v4.64c0,0.26-0.03,0.51-0.1,0.75c-0.07,0.24-0.16,0.47-0.29,0.68c-0.12,0.21-0.27,0.41-0.45,0.58
			c-0.17,0.17-0.37,0.32-0.58,0.45c-0.21,0.13-0.44,0.22-0.68,0.29c-0.24,0.07-0.49,0.1-0.76,0.1c-0.79,0-1.46-0.28-2.01-0.84
			c-0.56-0.56-0.84-1.23-0.84-2.02v-4.64c0-0.15,0.05-0.27,0.16-0.38c0.1-0.1,0.23-0.16,0.38-0.16c0.15,0,0.27,0.05,0.38,0.16
			C43.55,49.54,43.6,49.66,43.6,49.81z"/>
		<path class="st0" d="M48.55,56.77v-6.96c0-0.07,0.01-0.14,0.04-0.21c0.03-0.07,0.06-0.12,0.11-0.17c0.05-0.05,0.1-0.09,0.17-0.11
			c0.06-0.03,0.13-0.04,0.21-0.04h1.94c0.34,0,0.66,0.07,0.96,0.2c0.3,0.13,0.56,0.31,0.78,0.53c0.22,0.22,0.4,0.49,0.53,0.78
			c0.13,0.3,0.2,0.62,0.2,0.96c0,0.22-0.03,0.44-0.08,0.64c-0.06,0.21-0.14,0.41-0.25,0.59c-0.11,0.19-0.24,0.36-0.41,0.52
			c-0.16,0.16-0.35,0.3-0.56,0.42l1.6,2.56c0.06,0.09,0.09,0.19,0.09,0.29c0,0.08-0.01,0.15-0.04,0.21
			c-0.03,0.06-0.06,0.12-0.11,0.17c-0.05,0.05-0.11,0.09-0.17,0.11c-0.07,0.03-0.13,0.04-0.21,0.04c-0.19,0-0.34-0.09-0.46-0.26
			l-1.77-2.83h-1.5v2.56c0,0.15-0.05,0.27-0.15,0.38c-0.1,0.1-0.23,0.16-0.38,0.16c-0.15,0-0.27-0.05-0.38-0.16
			C48.6,57.04,48.55,56.92,48.55,56.77z M49.61,50.34v2.8h1.4c0.19,0,0.38-0.04,0.55-0.11c0.17-0.07,0.32-0.17,0.44-0.3
			c0.13-0.13,0.23-0.28,0.3-0.45c0.07-0.17,0.11-0.35,0.11-0.54c0-0.19-0.04-0.38-0.11-0.55c-0.07-0.17-0.17-0.32-0.3-0.45
			c-0.13-0.13-0.28-0.23-0.45-0.3c-0.17-0.07-0.35-0.11-0.54-0.11H49.61z"/>
		<path class="st0" d="M55.58,56.77c0,0.15-0.05,0.27-0.16,0.38c-0.1,0.1-0.23,0.16-0.38,0.16c-0.15,0-0.27-0.05-0.38-0.16
			c-0.1-0.1-0.15-0.23-0.15-0.38v-6.96c0-0.15,0.05-0.27,0.15-0.38c0.1-0.1,0.23-0.16,0.38-0.16c0.15,0,0.27,0.05,0.38,0.16
			c0.1,0.1,0.16,0.23,0.16,0.38V56.77z"/>
		<path class="st0" d="M62.34,55.5c0.07,0,0.14,0.01,0.21,0.04c0.06,0.03,0.12,0.07,0.17,0.11c0.05,0.05,0.09,0.1,0.12,0.17
			c0.03,0.06,0.04,0.13,0.04,0.21c0,0.14-0.05,0.27-0.17,0.38c-0.75,0.6-1.59,0.89-2.52,0.89c-1.11,0-2.06-0.39-2.84-1.17
			c-0.78-0.78-1.17-1.73-1.17-2.84c0-1.11,0.39-2.05,1.17-2.84c0.79-0.79,1.73-1.18,2.84-1.18c0.95,0,1.81,0.31,2.57,0.94
			c0.09,0.09,0.14,0.21,0.14,0.37c0,0.08-0.01,0.15-0.04,0.21c-0.03,0.06-0.07,0.12-0.11,0.17c-0.05,0.05-0.11,0.09-0.17,0.11
			c-0.06,0.03-0.13,0.04-0.21,0.04c-0.13,0-0.25-0.05-0.37-0.15c-0.26-0.2-0.53-0.35-0.84-0.46c-0.31-0.11-0.63-0.16-0.98-0.16
			c-0.82,0-1.51,0.29-2.09,0.87c-0.57,0.57-0.86,1.27-0.86,2.08c0,0.82,0.29,1.51,0.86,2.09c0.58,0.57,1.27,0.86,2.09,0.86
			c0.7,0,1.31-0.22,1.85-0.65C62.12,55.53,62.22,55.5,62.34,55.5z"/>
		<path class="st0" d="M68.88,56.77c0,0.15-0.05,0.27-0.16,0.38c-0.1,0.1-0.23,0.16-0.38,0.16c-0.15,0-0.27-0.05-0.38-0.16
			c-0.1-0.1-0.16-0.23-0.16-0.38v-2.95h-3.58v2.95c0,0.15-0.05,0.27-0.15,0.38c-0.1,0.1-0.23,0.16-0.38,0.16
			c-0.15,0-0.27-0.05-0.38-0.16c-0.1-0.1-0.15-0.23-0.15-0.38v-6.96c0-0.15,0.05-0.27,0.15-0.38c0.1-0.1,0.23-0.16,0.38-0.16
			c0.15,0,0.27,0.05,0.38,0.16c0.1,0.1,0.15,0.23,0.15,0.38v2.95h3.58v-2.95c0-0.15,0.05-0.27,0.16-0.38
			c0.1-0.1,0.23-0.16,0.38-0.16c0.15,0,0.27,0.05,0.38,0.16c0.1,0.1,0.16,0.23,0.16,0.38V56.77z"/>
	</g>
	<g>
		<path class="st0" d="M25.85,59.65c0.06-0.06,0.14-0.09,0.22-0.09c0.09,0,0.17,0.03,0.23,0.09c0.06,0.06,0.09,0.14,0.09,0.23
			c0,0.09-0.03,0.16-0.09,0.22c-0.06,0.06-0.14,0.09-0.23,0.09c-0.09,0-0.16-0.03-0.22-0.09c-0.06-0.06-0.09-0.14-0.09-0.22
			C25.76,59.78,25.79,59.71,25.85,59.65z M25.85,60.91c0.06-0.06,0.14-0.09,0.22-0.09c0.09,0,0.17,0.03,0.23,0.09
			c0.06,0.06,0.09,0.14,0.09,0.22c0,0.09-0.03,0.17-0.09,0.23c-0.06,0.06-0.14,0.09-0.23,0.09c-0.09,0-0.16-0.03-0.22-0.09
			c-0.06-0.06-0.09-0.14-0.09-0.23C25.76,61.04,25.79,60.97,25.85,60.91z"/>
	</g>
	<path class="st0" d="M27.14,60.86c0.07-0.07,0.15-0.1,0.24-0.1c0.1,0,0.18,0.03,0.24,0.1c0.07,0.07,0.1,0.15,0.1,0.24
		c0,0.1-0.03,0.18-0.1,0.24c-0.07,0.07-0.15,0.1-0.24,0.1c-0.09,0-0.18-0.03-0.24-0.1c-0.07-0.07-0.1-0.15-0.1-0.24
		C27.05,61.01,27.08,60.93,27.14,60.86z"/>
	<path class="st0" d="M28.48,59.65c0.06-0.06,0.14-0.09,0.22-0.09c0.09,0,0.17,0.03,0.23,0.09c0.06,0.06,0.09,0.14,0.09,0.23
		c0,0.09-0.03,0.16-0.09,0.22c-0.06,0.06-0.14,0.09-0.23,0.09c-0.09,0-0.16-0.03-0.22-0.09c-0.06-0.06-0.09-0.14-0.09-0.22
		C28.38,59.78,28.41,59.71,28.48,59.65z M28.48,60.91c0.06-0.06,0.14-0.09,0.22-0.09c0.09,0,0.17,0.03,0.23,0.09
		c0.06,0.06,0.09,0.14,0.09,0.22c0,0.09-0.03,0.17-0.09,0.23c-0.06,0.06-0.14,0.09-0.23,0.09c-0.09,0-0.16-0.03-0.22-0.09
		c-0.06-0.06-0.09-0.14-0.09-0.23C28.38,61.04,28.41,60.97,28.48,60.91z"/>
	<g>
		<path class="st0" d="M29.79,59.65c0.06-0.06,0.14-0.09,0.22-0.09c0.09,0,0.17,0.03,0.23,0.09c0.06,0.06,0.09,0.14,0.09,0.23
			c0,0.09-0.03,0.16-0.09,0.22c-0.06,0.06-0.14,0.09-0.23,0.09c-0.09,0-0.16-0.03-0.22-0.09c-0.06-0.06-0.09-0.14-0.09-0.22
			C29.7,59.78,29.73,59.71,29.79,59.65z M29.79,60.91c0.06-0.06,0.14-0.09,0.22-0.09c0.09,0,0.17,0.03,0.23,0.09
			c0.06,0.06,0.09,0.14,0.09,0.22c0,0.09-0.03,0.17-0.09,0.23c-0.06,0.06-0.14,0.09-0.23,0.09c-0.09,0-0.16-0.03-0.22-0.09
			c-0.06-0.06-0.09-0.14-0.09-0.23C29.7,61.04,29.73,60.97,29.79,60.91z"/>
	</g>
	<path class="st0" d="M31.09,60.86c0.07-0.07,0.15-0.1,0.24-0.1c0.1,0,0.18,0.03,0.24,0.1c0.07,0.07,0.1,0.15,0.1,0.24
		c0,0.1-0.03,0.18-0.1,0.24c-0.07,0.07-0.15,0.1-0.24,0.1c-0.09,0-0.18-0.03-0.24-0.1c-0.07-0.07-0.1-0.15-0.1-0.24
		C30.99,61.01,31.02,60.93,31.09,60.86z"/>
	<path class="st0" d="M32.42,59.65c0.06-0.06,0.14-0.09,0.22-0.09c0.09,0,0.17,0.03,0.23,0.09c0.06,0.06,0.09,0.14,0.09,0.23
		s-0.03,0.16-0.09,0.22c-0.06,0.06-0.14,0.09-0.23,0.09c-0.09,0-0.16-0.03-0.22-0.09c-0.06-0.06-0.09-0.14-0.09-0.22
		S32.35,59.71,32.42,59.65z M32.42,60.91c0.06-0.06,0.14-0.09,0.22-0.09c0.09,0,0.17,0.03,0.23,0.09c0.06,0.06,0.09,0.14,0.09,0.22
		c0,0.09-0.03,0.17-0.09,0.23c-0.06,0.06-0.14,0.09-0.23,0.09c-0.09,0-0.16-0.03-0.22-0.09c-0.06-0.06-0.09-0.14-0.09-0.23
		C32.32,61.04,32.35,60.97,32.42,60.91z"/>
	<g>
		<path class="st0" d="M17.97,59.65c0.06-0.06,0.14-0.09,0.22-0.09c0.09,0,0.17,0.03,0.23,0.09c0.06,0.06,0.09,0.14,0.09,0.23
			c0,0.09-0.03,0.16-0.09,0.22c-0.06,0.06-0.14,0.09-0.23,0.09c-0.09,0-0.16-0.03-0.22-0.09c-0.06-0.06-0.09-0.14-0.09-0.22
			C17.88,59.78,17.91,59.71,17.97,59.65z M17.97,60.91c0.06-0.06,0.14-0.09,0.22-0.09c0.09,0,0.17,0.03,0.23,0.09
			c0.06,0.06,0.09,0.14,0.09,0.22c0,0.09-0.03,0.17-0.09,0.23c-0.06,0.06-0.14,0.09-0.23,0.09c-0.09,0-0.16-0.03-0.22-0.09
			c-0.06-0.06-0.09-0.14-0.09-0.23C17.88,61.04,17.91,60.97,17.97,60.91z"/>
	</g>
	<path class="st0" d="M19.26,60.86c0.07-0.07,0.15-0.1,0.24-0.1c0.1,0,0.18,0.03,0.24,0.1c0.07,0.07,0.1,0.15,0.1,0.24
		c0,0.1-0.03,0.18-0.1,0.24c-0.07,0.07-0.15,0.1-0.24,0.1c-0.09,0-0.18-0.03-0.24-0.1c-0.07-0.07-0.1-0.15-0.1-0.24
		C19.16,61.01,19.2,60.93,19.26,60.86z"/>
	<path class="st0" d="M20.59,59.65c0.06-0.06,0.14-0.09,0.22-0.09c0.09,0,0.17,0.03,0.23,0.09c0.06,0.06,0.09,0.14,0.09,0.23
		c0,0.09-0.03,0.16-0.09,0.22c-0.06,0.06-0.14,0.09-0.23,0.09c-0.09,0-0.16-0.03-0.22-0.09c-0.06-0.06-0.09-0.14-0.09-0.22
		C20.5,59.78,20.53,59.71,20.59,59.65z M20.59,60.91c0.06-0.06,0.14-0.09,0.22-0.09c0.09,0,0.17,0.03,0.23,0.09
		c0.06,0.06,0.09,0.14,0.09,0.22c0,0.09-0.03,0.17-0.09,0.23c-0.06,0.06-0.14,0.09-0.23,0.09c-0.09,0-0.16-0.03-0.22-0.09
		c-0.06-0.06-0.09-0.14-0.09-0.23C20.5,61.04,20.53,60.97,20.59,60.91z"/>
	<g>
		<path class="st0" d="M21.91,59.65c0.06-0.06,0.14-0.09,0.22-0.09c0.09,0,0.17,0.03,0.23,0.09c0.06,0.06,0.09,0.14,0.09,0.23
			c0,0.09-0.03,0.16-0.09,0.22c-0.06,0.06-0.14,0.09-0.23,0.09c-0.09,0-0.16-0.03-0.22-0.09c-0.06-0.06-0.09-0.14-0.09-0.22
			C21.82,59.78,21.85,59.71,21.91,59.65z M21.91,60.91c0.06-0.06,0.14-0.09,0.22-0.09c0.09,0,0.17,0.03,0.23,0.09
			c0.06,0.06,0.09,0.14,0.09,0.22c0,0.09-0.03,0.17-0.09,0.23c-0.06,0.06-0.14,0.09-0.23,0.09c-0.09,0-0.16-0.03-0.22-0.09
			c-0.06-0.06-0.09-0.14-0.09-0.23C21.82,61.04,21.85,60.97,21.91,60.91z"/>
	</g>
	<path class="st0" d="M23.2,60.86c0.07-0.07,0.15-0.1,0.24-0.1c0.1,0,0.18,0.03,0.24,0.1c0.07,0.07,0.1,0.15,0.1,0.24
		c0,0.1-0.03,0.18-0.1,0.24c-0.07,0.07-0.15,0.1-0.24,0.1c-0.09,0-0.18-0.03-0.24-0.1c-0.07-0.07-0.1-0.15-0.1-0.24
		C23.11,61.01,23.14,60.93,23.2,60.86z"/>
	<path class="st0" d="M24.54,59.65c0.06-0.06,0.14-0.09,0.22-0.09c0.09,0,0.17,0.03,0.23,0.09c0.06,0.06,0.09,0.14,0.09,0.23
		c0,0.09-0.03,0.16-0.09,0.22c-0.06,0.06-0.14,0.09-0.23,0.09c-0.09,0-0.16-0.03-0.22-0.09c-0.06-0.06-0.09-0.14-0.09-0.22
		C24.44,59.78,24.47,59.71,24.54,59.65z M24.54,60.91c0.06-0.06,0.14-0.09,0.22-0.09c0.09,0,0.17,0.03,0.23,0.09
		c0.06,0.06,0.09,0.14,0.09,0.22c0,0.09-0.03,0.17-0.09,0.23c-0.06,0.06-0.14,0.09-0.23,0.09c-0.09,0-0.16-0.03-0.22-0.09
		c-0.06-0.06-0.09-0.14-0.09-0.23C24.44,61.04,24.47,60.97,24.54,60.91z"/>
	<g>
		<path class="st0" d="M10.09,59.65c0.06-0.06,0.14-0.09,0.22-0.09c0.09,0,0.17,0.03,0.23,0.09c0.06,0.06,0.09,0.14,0.09,0.23
			c0,0.09-0.03,0.16-0.09,0.22c-0.06,0.06-0.14,0.09-0.23,0.09c-0.09,0-0.16-0.03-0.22-0.09c-0.06-0.06-0.09-0.14-0.09-0.22
			C9.99,59.78,10.03,59.71,10.09,59.65z M10.09,60.91c0.06-0.06,0.14-0.09,0.22-0.09c0.09,0,0.17,0.03,0.23,0.09
			c0.06,0.06,0.09,0.14,0.09,0.22c0,0.09-0.03,0.17-0.09,0.23c-0.06,0.06-0.14,0.09-0.23,0.09c-0.09,0-0.16-0.03-0.22-0.09
			c-0.06-0.06-0.09-0.14-0.09-0.23C9.99,61.04,10.03,60.97,10.09,60.91z"/>
	</g>
	<path class="st0" d="M11.38,60.86c0.07-0.07,0.15-0.1,0.24-0.1c0.1,0,0.18,0.03,0.24,0.1c0.07,0.07,0.1,0.15,0.1,0.24
		c0,0.1-0.03,0.18-0.1,0.24c-0.07,0.07-0.15,0.1-0.24,0.1c-0.09,0-0.18-0.03-0.24-0.1c-0.07-0.07-0.1-0.15-0.1-0.24
		C11.28,61.01,11.32,60.93,11.38,60.86z"/>
	<path class="st0" d="M12.71,59.65c0.06-0.06,0.14-0.09,0.22-0.09c0.09,0,0.17,0.03,0.23,0.09c0.06,0.06,0.09,0.14,0.09,0.23
		c0,0.09-0.03,0.16-0.09,0.22c-0.06,0.06-0.14,0.09-0.23,0.09c-0.09,0-0.16-0.03-0.22-0.09c-0.06-0.06-0.09-0.14-0.09-0.22
		C12.62,59.78,12.65,59.71,12.71,59.65z M12.71,60.91c0.06-0.06,0.14-0.09,0.22-0.09c0.09,0,0.17,0.03,0.23,0.09
		c0.06,0.06,0.09,0.14,0.09,0.22c0,0.09-0.03,0.17-0.09,0.23c-0.06,0.06-0.14,0.09-0.23,0.09c-0.09,0-0.16-0.03-0.22-0.09
		c-0.06-0.06-0.09-0.14-0.09-0.23C12.62,61.04,12.65,60.97,12.71,60.91z"/>
	<g>
		<path class="st0" d="M14.03,59.65c0.06-0.06,0.14-0.09,0.22-0.09c0.09,0,0.17,0.03,0.23,0.09c0.06,0.06,0.09,0.14,0.09,0.23
			c0,0.09-0.03,0.16-0.09,0.22c-0.06,0.06-0.14,0.09-0.23,0.09c-0.09,0-0.16-0.03-0.22-0.09c-0.06-0.06-0.09-0.14-0.09-0.22
			C13.94,59.78,13.97,59.71,14.03,59.65z M14.03,60.91c0.06-0.06,0.14-0.09,0.22-0.09c0.09,0,0.17,0.03,0.23,0.09
			c0.06,0.06,0.09,0.14,0.09,0.22c0,0.09-0.03,0.17-0.09,0.23c-0.06,0.06-0.14,0.09-0.23,0.09c-0.09,0-0.16-0.03-0.22-0.09
			c-0.06-0.06-0.09-0.14-0.09-0.23C13.94,61.04,13.97,60.97,14.03,60.91z"/>
	</g>
	<path class="st0" d="M15.32,60.86c0.07-0.07,0.15-0.1,0.24-0.1c0.1,0,0.18,0.03,0.24,0.1c0.07,0.07,0.1,0.15,0.1,0.24
		c0,0.1-0.03,0.18-0.1,0.24c-0.07,0.07-0.15,0.1-0.24,0.1c-0.09,0-0.18-0.03-0.24-0.1c-0.07-0.07-0.1-0.15-0.1-0.24
		C15.22,61.01,15.26,60.93,15.32,60.86z"/>
	<path class="st0" d="M16.65,59.65c0.06-0.06,0.14-0.09,0.22-0.09c0.09,0,0.17,0.03,0.23,0.09c0.06,0.06,0.09,0.14,0.09,0.23
		c0,0.09-0.03,0.16-0.09,0.22c-0.06,0.06-0.14,0.09-0.23,0.09c-0.09,0-0.16-0.03-0.22-0.09c-0.06-0.06-0.09-0.14-0.09-0.22
		C16.56,59.78,16.59,59.71,16.65,59.65z M16.65,60.91c0.06-0.06,0.14-0.09,0.22-0.09c0.09,0,0.17,0.03,0.23,0.09
		c0.06,0.06,0.09,0.14,0.09,0.22c0,0.09-0.03,0.17-0.09,0.23c-0.06,0.06-0.14,0.09-0.23,0.09c-0.09,0-0.16-0.03-0.22-0.09
		c-0.06-0.06-0.09-0.14-0.09-0.23C16.56,61.04,16.59,60.97,16.65,60.91z"/>
	<g>
		<path class="st1" d="M61.76,59.65c0.06-0.06,0.14-0.09,0.22-0.09c0.09,0,0.17,0.03,0.23,0.09c0.06,0.06,0.09,0.14,0.09,0.23
			c0,0.09-0.03,0.16-0.09,0.22c-0.06,0.06-0.14,0.09-0.23,0.09c-0.09,0-0.16-0.03-0.22-0.09c-0.06-0.06-0.09-0.14-0.09-0.22
			C61.67,59.78,61.7,59.71,61.76,59.65z M61.76,60.91c0.06-0.06,0.14-0.09,0.22-0.09c0.09,0,0.17,0.03,0.23,0.09
			c0.06,0.06,0.09,0.14,0.09,0.22c0,0.09-0.03,0.17-0.09,0.23c-0.06,0.06-0.14,0.09-0.23,0.09c-0.09,0-0.16-0.03-0.22-0.09
			c-0.06-0.06-0.09-0.14-0.09-0.23C61.67,61.04,61.7,60.97,61.76,60.91z"/>
	</g>
	<path class="st1" d="M63.06,60.86c0.07-0.07,0.15-0.1,0.24-0.1c0.1,0,0.18,0.03,0.24,0.1c0.07,0.07,0.1,0.15,0.1,0.24
		c0,0.1-0.03,0.18-0.1,0.24c-0.07,0.07-0.15,0.1-0.24,0.1c-0.09,0-0.18-0.03-0.24-0.1c-0.07-0.07-0.1-0.15-0.1-0.24
		C62.96,61.01,62.99,60.93,63.06,60.86z"/>
	<path class="st1" d="M64.39,59.65c0.06-0.06,0.14-0.09,0.22-0.09c0.09,0,0.17,0.03,0.23,0.09c0.06,0.06,0.09,0.14,0.09,0.23
		c0,0.09-0.03,0.16-0.09,0.22c-0.06,0.06-0.14,0.09-0.23,0.09c-0.09,0-0.16-0.03-0.22-0.09c-0.06-0.06-0.09-0.14-0.09-0.22
		C64.3,59.78,64.33,59.71,64.39,59.65z M64.39,60.91c0.06-0.06,0.14-0.09,0.22-0.09c0.09,0,0.17,0.03,0.23,0.09
		c0.06,0.06,0.09,0.14,0.09,0.22c0,0.09-0.03,0.17-0.09,0.23c-0.06,0.06-0.14,0.09-0.23,0.09c-0.09,0-0.16-0.03-0.22-0.09
		c-0.06-0.06-0.09-0.14-0.09-0.23C64.3,61.04,64.33,60.97,64.39,60.91z"/>
	<g>
		<path class="st1" d="M65.7,59.65c0.06-0.06,0.14-0.09,0.22-0.09c0.09,0,0.17,0.03,0.23,0.09c0.06,0.06,0.09,0.14,0.09,0.23
			c0,0.09-0.03,0.16-0.09,0.22c-0.06,0.06-0.14,0.09-0.23,0.09c-0.09,0-0.16-0.03-0.22-0.09c-0.06-0.06-0.09-0.14-0.09-0.22
			C65.61,59.78,65.64,59.71,65.7,59.65z M65.7,60.91c0.06-0.06,0.14-0.09,0.22-0.09c0.09,0,0.17,0.03,0.23,0.09
			c0.06,0.06,0.09,0.14,0.09,0.22c0,0.09-0.03,0.17-0.09,0.23c-0.06,0.06-0.14,0.09-0.23,0.09c-0.09,0-0.16-0.03-0.22-0.09
			c-0.06-0.06-0.09-0.14-0.09-0.23C65.61,61.04,65.64,60.97,65.7,60.91z"/>
	</g>
	<path class="st1" d="M67,60.86c0.07-0.07,0.15-0.1,0.24-0.1c0.1,0,0.18,0.03,0.24,0.1c0.07,0.07,0.1,0.15,0.1,0.24
		c0,0.1-0.03,0.18-0.1,0.24c-0.07,0.07-0.15,0.1-0.24,0.1c-0.09,0-0.18-0.03-0.24-0.1c-0.07-0.07-0.1-0.15-0.1-0.24
		C66.9,61.01,66.93,60.93,67,60.86z"/>
	<path class="st1" d="M68.33,59.65c0.06-0.06,0.14-0.09,0.22-0.09c0.09,0,0.17,0.03,0.23,0.09c0.06,0.06,0.09,0.14,0.09,0.23
		s-0.03,0.16-0.09,0.22c-0.06,0.06-0.14,0.09-0.23,0.09c-0.09,0-0.16-0.03-0.22-0.09c-0.06-0.06-0.09-0.14-0.09-0.22
		S68.27,59.71,68.33,59.65z M68.33,60.91c0.06-0.06,0.14-0.09,0.22-0.09c0.09,0,0.17,0.03,0.23,0.09c0.06,0.06,0.09,0.14,0.09,0.22
		c0,0.09-0.03,0.17-0.09,0.23c-0.06,0.06-0.14,0.09-0.23,0.09c-0.09,0-0.16-0.03-0.22-0.09c-0.06-0.06-0.09-0.14-0.09-0.23
		C68.24,61.04,68.27,60.97,68.33,60.91z"/>
	<g>
		<path class="st1" d="M53.88,59.65c0.06-0.06,0.14-0.09,0.22-0.09c0.09,0,0.17,0.03,0.23,0.09c0.06,0.06,0.09,0.14,0.09,0.23
			c0,0.09-0.03,0.16-0.09,0.22c-0.06,0.06-0.14,0.09-0.23,0.09c-0.09,0-0.16-0.03-0.22-0.09c-0.06-0.06-0.09-0.14-0.09-0.22
			C53.79,59.78,53.82,59.71,53.88,59.65z M53.88,60.91c0.06-0.06,0.14-0.09,0.22-0.09c0.09,0,0.17,0.03,0.23,0.09
			c0.06,0.06,0.09,0.14,0.09,0.22c0,0.09-0.03,0.17-0.09,0.23c-0.06,0.06-0.14,0.09-0.23,0.09c-0.09,0-0.16-0.03-0.22-0.09
			c-0.06-0.06-0.09-0.14-0.09-0.23C53.79,61.04,53.82,60.97,53.88,60.91z"/>
	</g>
	<path class="st1" d="M55.18,60.86c0.07-0.07,0.15-0.1,0.24-0.1c0.1,0,0.18,0.03,0.24,0.1c0.07,0.07,0.1,0.15,0.1,0.24
		c0,0.1-0.03,0.18-0.1,0.24c-0.07,0.07-0.15,0.1-0.24,0.1c-0.09,0-0.18-0.03-0.24-0.1c-0.07-0.07-0.1-0.15-0.1-0.24
		C55.08,61.01,55.11,60.93,55.18,60.86z"/>
	<path class="st1" d="M56.51,59.65c0.06-0.06,0.14-0.09,0.22-0.09c0.09,0,0.17,0.03,0.23,0.09c0.06,0.06,0.09,0.14,0.09,0.23
		c0,0.09-0.03,0.16-0.09,0.22c-0.06,0.06-0.14,0.09-0.23,0.09c-0.09,0-0.16-0.03-0.22-0.09c-0.06-0.06-0.09-0.14-0.09-0.22
		C56.42,59.78,56.45,59.71,56.51,59.65z M56.51,60.91c0.06-0.06,0.14-0.09,0.22-0.09c0.09,0,0.17,0.03,0.23,0.09
		c0.06,0.06,0.09,0.14,0.09,0.22c0,0.09-0.03,0.17-0.09,0.23c-0.06,0.06-0.14,0.09-0.23,0.09c-0.09,0-0.16-0.03-0.22-0.09
		c-0.06-0.06-0.09-0.14-0.09-0.23C56.42,61.04,56.45,60.97,56.51,60.91z"/>
	<g>
		<path class="st1" d="M57.82,59.65c0.06-0.06,0.14-0.09,0.22-0.09c0.09,0,0.17,0.03,0.23,0.09c0.06,0.06,0.09,0.14,0.09,0.23
			c0,0.09-0.03,0.16-0.09,0.22c-0.06,0.06-0.14,0.09-0.23,0.09c-0.09,0-0.16-0.03-0.22-0.09c-0.06-0.06-0.09-0.14-0.09-0.22
			C57.73,59.78,57.76,59.71,57.82,59.65z M57.82,60.91c0.06-0.06,0.14-0.09,0.22-0.09c0.09,0,0.17,0.03,0.23,0.09
			c0.06,0.06,0.09,0.14,0.09,0.22c0,0.09-0.03,0.17-0.09,0.23c-0.06,0.06-0.14,0.09-0.23,0.09c-0.09,0-0.16-0.03-0.22-0.09
			c-0.06-0.06-0.09-0.14-0.09-0.23C57.73,61.04,57.76,60.97,57.82,60.91z"/>
	</g>
	<path class="st1" d="M59.12,60.86c0.07-0.07,0.15-0.1,0.24-0.1c0.1,0,0.18,0.03,0.24,0.1c0.07,0.07,0.1,0.15,0.1,0.24
		c0,0.1-0.03,0.18-0.1,0.24c-0.07,0.07-0.15,0.1-0.24,0.1c-0.09,0-0.18-0.03-0.24-0.1c-0.07-0.07-0.1-0.15-0.1-0.24
		C59.02,61.01,59.05,60.93,59.12,60.86z"/>
	<path class="st1" d="M60.45,59.65c0.06-0.06,0.14-0.09,0.22-0.09c0.09,0,0.17,0.03,0.23,0.09c0.06,0.06,0.09,0.14,0.09,0.23
		c0,0.09-0.03,0.16-0.09,0.22c-0.06,0.06-0.14,0.09-0.23,0.09c-0.09,0-0.16-0.03-0.22-0.09c-0.06-0.06-0.09-0.14-0.09-0.22
		C60.36,59.78,60.39,59.71,60.45,59.65z M60.45,60.91c0.06-0.06,0.14-0.09,0.22-0.09c0.09,0,0.17,0.03,0.23,0.09
		c0.06,0.06,0.09,0.14,0.09,0.22c0,0.09-0.03,0.17-0.09,0.23c-0.06,0.06-0.14,0.09-0.23,0.09c-0.09,0-0.16-0.03-0.22-0.09
		c-0.06-0.06-0.09-0.14-0.09-0.23C60.36,61.04,60.39,60.97,60.45,60.91z"/>
	<g>
		<path class="st1" d="M46,59.65c0.06-0.06,0.14-0.09,0.22-0.09c0.09,0,0.17,0.03,0.23,0.09c0.06,0.06,0.09,0.14,0.09,0.23
			c0,0.09-0.03,0.16-0.09,0.22c-0.06,0.06-0.14,0.09-0.23,0.09c-0.09,0-0.16-0.03-0.22-0.09c-0.06-0.06-0.09-0.14-0.09-0.22
			C45.91,59.78,45.94,59.71,46,59.65z M46,60.91c0.06-0.06,0.14-0.09,0.22-0.09c0.09,0,0.17,0.03,0.23,0.09
			c0.06,0.06,0.09,0.14,0.09,0.22c0,0.09-0.03,0.17-0.09,0.23c-0.06,0.06-0.14,0.09-0.23,0.09c-0.09,0-0.16-0.03-0.22-0.09
			c-0.06-0.06-0.09-0.14-0.09-0.23C45.91,61.04,45.94,60.97,46,60.91z"/>
	</g>
	<path class="st1" d="M47.3,60.86c0.07-0.07,0.15-0.1,0.24-0.1c0.1,0,0.18,0.03,0.24,0.1c0.07,0.07,0.1,0.15,0.1,0.24
		c0,0.1-0.03,0.18-0.1,0.24c-0.07,0.07-0.15,0.1-0.24,0.1c-0.09,0-0.18-0.03-0.24-0.1c-0.07-0.07-0.1-0.15-0.1-0.24
		C47.2,61.01,47.23,60.93,47.3,60.86z"/>
	<path class="st1" d="M48.63,59.65c0.06-0.06,0.14-0.09,0.22-0.09c0.09,0,0.17,0.03,0.23,0.09c0.06,0.06,0.09,0.14,0.09,0.23
		c0,0.09-0.03,0.16-0.09,0.22c-0.06,0.06-0.14,0.09-0.23,0.09c-0.09,0-0.16-0.03-0.22-0.09c-0.06-0.06-0.09-0.14-0.09-0.22
		C48.54,59.78,48.57,59.71,48.63,59.65z M48.63,60.91c0.06-0.06,0.14-0.09,0.22-0.09c0.09,0,0.17,0.03,0.23,0.09
		c0.06,0.06,0.09,0.14,0.09,0.22c0,0.09-0.03,0.17-0.09,0.23c-0.06,0.06-0.14,0.09-0.23,0.09c-0.09,0-0.16-0.03-0.22-0.09
		c-0.06-0.06-0.09-0.14-0.09-0.23C48.54,61.04,48.57,60.97,48.63,60.91z"/>
	<g>
		<path class="st1" d="M49.94,59.65c0.06-0.06,0.14-0.09,0.22-0.09c0.09,0,0.17,0.03,0.23,0.09c0.06,0.06,0.09,0.14,0.09,0.23
			c0,0.09-0.03,0.16-0.09,0.22c-0.06,0.06-0.14,0.09-0.23,0.09c-0.09,0-0.16-0.03-0.22-0.09c-0.06-0.06-0.09-0.14-0.09-0.22
			C49.85,59.78,49.88,59.71,49.94,59.65z M49.94,60.91c0.06-0.06,0.14-0.09,0.22-0.09c0.09,0,0.17,0.03,0.23,0.09
			c0.06,0.06,0.09,0.14,0.09,0.22c0,0.09-0.03,0.17-0.09,0.23c-0.06,0.06-0.14,0.09-0.23,0.09c-0.09,0-0.16-0.03-0.22-0.09
			c-0.06-0.06-0.09-0.14-0.09-0.23C49.85,61.04,49.88,60.97,49.94,60.91z"/>
	</g>
	<path class="st1" d="M51.24,60.86c0.07-0.07,0.15-0.1,0.24-0.1c0.1,0,0.18,0.03,0.24,0.1c0.07,0.07,0.1,0.15,0.1,0.24
		c0,0.1-0.03,0.18-0.1,0.24c-0.07,0.07-0.15,0.1-0.24,0.1c-0.09,0-0.18-0.03-0.24-0.1c-0.07-0.07-0.1-0.15-0.1-0.24
		C51.14,61.01,51.17,60.93,51.24,60.86z"/>
	<path class="st1" d="M52.57,59.65c0.06-0.06,0.14-0.09,0.22-0.09c0.09,0,0.17,0.03,0.23,0.09c0.06,0.06,0.09,0.14,0.09,0.23
		c0,0.09-0.03,0.16-0.09,0.22c-0.06,0.06-0.14,0.09-0.23,0.09c-0.09,0-0.16-0.03-0.22-0.09c-0.06-0.06-0.09-0.14-0.09-0.22
		C52.48,59.78,52.51,59.71,52.57,59.65z M52.57,60.91c0.06-0.06,0.14-0.09,0.22-0.09c0.09,0,0.17,0.03,0.23,0.09
		c0.06,0.06,0.09,0.14,0.09,0.22c0,0.09-0.03,0.17-0.09,0.23c-0.06,0.06-0.14,0.09-0.23,0.09c-0.09,0-0.16-0.03-0.22-0.09
		c-0.06-0.06-0.09-0.14-0.09-0.23C52.48,61.04,52.51,60.97,52.57,60.91z"/>
	<path class="st2" d="M71.23,8.7L71.23,8.7c-0.87-1.18-2.18-2.06-3.61-2.43c-0.03-0.01-0.06-0.01-0.09-0.01
		c-0.22,0-0.44,0.16-0.49,0.38c-0.06,0.15-0.04,0.3,0.03,0.43c0.07,0.13,0.18,0.21,0.3,0.24c1.51,0.39,2.81,1.46,3.49,2.85
		c0.56,1.14,0.7,2.5,0.39,3.72c-0.03,0.13,0,0.27,0.08,0.39c0.08,0.12,0.2,0.19,0.33,0.21c0.27,0.08,0.55-0.07,0.64-0.31
		C72.78,12.33,72.37,10.23,71.23,8.7z"/>
	<path class="st2" d="M69.11,13.62c0.08,0.13,0.2,0.21,0.34,0.24c0.14,0.04,0.28,0.02,0.4-0.04c0.12-0.07,0.21-0.17,0.25-0.29
		c0.32-1.15,0.08-2.46-0.63-3.42c-0.6-0.8-1.46-1.36-2.36-1.54c-0.03-0.01-0.06-0.01-0.08-0.01c-0.2,0-0.33,0.14-0.38,0.21
		c-0.13,0.18-0.16,0.41-0.08,0.58c0.06,0.14,0.21,0.26,0.38,0.3c0.81,0.21,1.51,0.77,1.87,1.5c0.33,0.64,0.41,1.39,0.22,2.1
		C69.02,13.36,69.04,13.5,69.11,13.62z"/>
	<path class="st1" d="M57.65,0c-7.14,0-13.51,3.28-17.7,8.4C40,8.47,40.06,8.53,40.11,8.6c4.14-5.1,10.46-8.35,17.54-8.35
		c12.48,0,22.6,10.12,22.6,22.6c0,12.48-10.12,22.6-22.6,22.6c-7.08,0-13.4-3.26-17.54-8.35c-0.05,0.07-0.11,0.13-0.16,0.19
		c4.19,5.13,10.56,8.41,17.7,8.41c12.62,0,22.85-10.23,22.85-22.85C80.5,10.23,70.27,0,57.65,0z"/>
	<path class="st1" d="M39.84,36.74c-4.07,5.04-10.29,8.27-17.25,8.27c-12.22,0-22.16-9.94-22.16-22.16S10.37,0.68,22.59,0.68
		c6.96,0,13.18,3.23,17.25,8.27c0.09-0.12,0.18-0.23,0.27-0.35c-4.15-5.09-10.46-8.35-17.52-8.35C10.13,0.26,0,10.39,0,22.85
		s10.13,22.59,22.59,22.59c7.06,0,13.38-3.26,17.52-8.35C40.02,36.97,39.93,36.86,39.84,36.74z"/>
</g>
</svg>
