<?xml version="1.0" encoding="utf-8"?>
<!-- Generator: Adobe Illustrator 19.1.0, SVG Export Plug-In . SVG Version: 6.00 Build 0)  -->
<svg version="1.1" id="Layer_1" xmlns="http://www.w3.org/2000/svg" xmlns:xlink="http://www.w3.org/1999/xlink" x="0px" y="0px"
	 viewBox="0 0 177.5 98.6" style="enable-background:new 0 0 177.5 98.6;" xml:space="preserve">
<style type="text/css">
	.st0{fill:#FFFFFF;}
	.st1{fill:#0071BB;}
	.st2{opacity:0.3;}
	.st3{opacity:0.8;fill:#0071BB;}
	.st4{opacity:0.5;fill:#FFFFFF;}
</style>
<g>
	<circle class="st0" cx="126.2" cy="49.3" r="47.2"/>
	<path class="st1" d="M126.2,98.1c-26.9,0-48.8-21.9-48.8-48.8c0-26.9,21.9-48.8,48.8-48.8c26.9,0,48.8,21.9,48.8,48.8
		C175.1,76.2,153.1,98.1,126.2,98.1z M126.2,3.7c-25.1,0-45.6,20.4-45.6,45.6c0,25.1,20.4,45.6,45.6,45.6
		c25.1,0,45.6-20.4,45.6-45.6C171.8,24.2,151.3,3.7,126.2,3.7z"/>
	<path class="st1" d="M51.2,1C24.6,1,2.9,22.7,2.9,49.3s21.7,48.3,48.3,48.3c26.6,0,48.3-21.7,48.3-48.3S77.9,1,51.2,1z"/>
	<g class="st2">
		<g>
			<path class="st0" d="M92.4,83.8c-0.3-0.3-0.5-0.5-0.8-0.8c-8.8-9.1-13.7-21-13.7-33.7c0-12.9,5-25,14.1-34.2l1.5,1.5
				C84.9,25.4,80.1,37,80.1,49.3c0,12.1,4.6,23.5,13.1,32.2c0.2,0.3,0.5,0.5,0.8,0.8L92.4,83.8z"/>
		</g>
	</g>
	<g class="st2">
		<g>
			<path class="st0" d="M86.4,26l-1.9-1.1c0.2-0.3,0.4-0.6,0.6-1c6.6-10.8,17.1-18.4,29.3-21.5c12.5-3.1,25.5-1.2,36.6,5.4l-1.1,1.9
				c-10.6-6.3-23-8.1-34.9-5.1c-11.7,3-21.7,10.2-28,20.5C86.8,25.4,86.6,25.7,86.4,26z"/>
		</g>
	</g>
	<g class="st2">
		<g>
			<path class="st0" d="M169.9,34.4c-4-11.7-12.2-21.1-23.3-26.5c-10.8-5.3-23.2-6.2-34.7-2.5c-0.3,0.1-0.7,0.2-1,0.3l-0.7-2.1
				c0.3-0.1,0.7-0.2,1-0.4c12-3.9,24.9-3,36.3,2.6c11.6,5.7,20.2,15.6,24.4,27.8L169.9,34.4z"/>
		</g>
	</g>
	<g class="st2">
		<g>
			<path class="st0" d="M174.1,55.3L172,55c1.5-12.2-1.8-24.3-9.4-34c-7.4-9.5-18.1-15.7-30.1-17.4c-0.4,0-0.7-0.1-1-0.1l0.2-2.2
				c0.4,0,0.7,0.1,1.1,0.1c12.6,1.7,23.8,8.2,31.5,18.2C172.3,29.8,175.7,42.5,174.1,55.3z"/>
		</g>
	</g>
	<g class="st2">
		<g>
			<path class="st0" d="M126.2,97.6c-6.1,0-12.3-1.2-18.1-3.5c-12-4.8-21.3-14-26.4-25.9l2-0.9c4.8,11.3,13.8,20.1,25.2,24.7
				c11.2,4.5,23.5,4.5,34.7-0.1c0.3-0.1,0.6-0.3,1-0.4l0.9,2c-0.3,0.2-0.7,0.3-1,0.4C138.6,96.4,132.4,97.6,126.2,97.6z"/>
		</g>
	</g>
	<g class="st2">
		<g>
			<path class="st0" d="M129.9,97.5l-0.2-2.2c12.3-0.9,23.5-6.6,31.5-16c7.9-9.2,11.8-20.9,11-32.9c0-0.3,0-0.7-0.1-1l2.2-0.2
				c0,0.4,0.1,0.7,0.1,1.1c0.8,12.6-3.3,24.9-11.5,34.5C154.5,90.5,142.8,96.5,129.9,97.5z"/>
		</g>
	</g>
	<g class="st2">
		<g>
			<path class="st0" d="M51.2,96.7c-7,0-13.9-1.5-20.3-4.6c-11.4-5.4-20-15-24.3-26.9l2.1-0.7c4,11.4,12.3,20.5,23.2,25.7
				c10.7,5.1,22.8,5.8,34,2c0.3-0.1,0.7-0.2,1-0.3l0.8,2c-0.3,0.1-0.7,0.2-1,0.4C61.5,95.8,56.4,96.7,51.2,96.7z"/>
		</g>
	</g>
	<g class="st2">
		<g>
			<path class="st0" d="M12.1,75.9c-0.2-0.3-0.4-0.6-0.6-0.9C4.7,64.6,2.4,52.2,4.8,40C7.3,27.6,14.5,16.9,25,9.9l1.2,1.8
				c-10,6.7-16.9,16.9-19.3,28.7C4.6,52,6.9,63.9,13.3,73.8c0.2,0.3,0.4,0.6,0.6,0.9L12.1,75.9z"/>
		</g>
	</g>
	<g class="st2">
		<g>
			<path class="st0" d="M6.3,44.5l-2.2-0.2c0-0.4,0.1-0.7,0.1-1.1c1.6-12.3,7.8-23.3,17.6-31.1c9.9-7.9,22.3-11.4,34.9-9.9l-0.3,2.2
				c-12-1.4-23.8,2-33.3,9.4C13.9,21.2,8,31.7,6.4,43.5C6.4,43.8,6.4,44.2,6.3,44.5z"/>
		</g>
	</g>
	<g class="st2">
		<g>
			<path class="st0" d="M12.9,25.3l-1.9-1.1c0.2-0.3,0.4-0.6,0.6-0.9C18.5,12.9,28.9,5.7,41.1,3c12.4-2.7,25-0.5,35.7,6.3l-1.2,1.8
				c-10.2-6.5-22.3-8.6-34-6.1C30,7.7,20,14.6,13.5,24.5C13.3,24.7,13.1,25,12.9,25.3z"/>
		</g>
	</g>
	<g class="st2">
		<g>
			<path class="st0" d="M51.3,96.7c-0.7,0-1.4,0-2.1,0l0.1-2.2c12.1,0.5,23.6-3.7,32.5-11.8c8.7-8,13.9-18.9,14.6-30.8
				c0-0.3,0-0.7,0-1l2.2,0.1c0,0.4,0,0.7,0,1.1c-0.7,12.4-6.1,23.8-15.3,32.2C74.5,92.3,63.2,96.7,51.3,96.7z"/>
		</g>
	</g>
	<g class="st2">
		<g>
			<path class="st0" d="M95.4,66.3l-2-0.8c4.3-11.3,4-23.5-0.9-34.6C87.7,20.2,79,11.8,68.1,7.4c-0.3-0.1-0.6-0.3-1-0.4l0.7-2
				c0.3,0.1,0.7,0.3,1,0.4C80.4,10,89.5,18.7,94.5,30.1C99.7,41.7,100,54.5,95.4,66.3z"/>
		</g>
	</g>
	<path class="st3" d="M150,27.1c0-3.1-2.5-5.5-5.5-5.5h-36.6c-3.1,0-5.5,2.5-5.5,5.5c0,3.1,2.5,5.5,5.5,5.5h36.6
		C147.6,32.6,150,30.2,150,27.1z M104.1,27.1c0-2,1.6-3.7,3.7-3.7c2,0,3.7,1.6,3.7,3.7c0,2-1.6,3.7-3.7,3.7
		C105.7,30.8,104.1,29.1,104.1,27.1z M140.8,27.1c0-2,1.6-3.7,3.7-3.7c2,0,3.7,1.6,3.7,3.7c0,2-1.6,3.7-3.7,3.7
		C142.4,30.8,140.8,29.1,140.8,27.1z"/>
	<path class="st3" d="M150,71.2c0-3.1-2.5-5.5-5.5-5.5h-36.6c-3.1,0-5.5,2.5-5.5,5.5c0,3.1,2.5,5.5,5.5,5.5h36.6
		C147.6,76.7,150,74.2,150,71.2z M104.1,71.2c0-2,1.6-3.7,3.7-3.7c2,0,3.7,1.6,3.7,3.7c0,2-1.6,3.7-3.7,3.7
		C105.7,74.9,104.1,73.2,104.1,71.2z M140.8,71.2c0-2,1.6-3.7,3.7-3.7c2,0,3.7,1.6,3.7,3.7c0,2-1.6,3.7-3.7,3.7
		C142.4,74.9,140.8,73.2,140.8,71.2z"/>
	<path class="st3" d="M148.4,23.2c-2.2-2.2-5.7-2.2-7.8,0L104,67.3c-2.2,2.2-2.2,5.7,0,7.8c2.2,2.2,5.7,2.2,7.8,0L148.4,31
		C150.6,28.9,150.6,25.3,148.4,23.2z M105.2,73.9c-1.4-1.4-1.4-3.8,0-5.2c1.4-1.4,3.8-1.4,5.2,0c1.4,1.4,1.4,3.8,0,5.2
		C109,75.3,106.6,75.3,105.2,73.9z M141.9,29.7c-1.4-1.4-1.4-3.8,0-5.2c1.4-1.4,3.8-1.4,5.2,0c1.4,1.4,1.4,3.8,0,5.2
		C145.6,31.2,143.3,31.2,141.9,29.7z"/>
	<g>
		<path class="st4" d="M30.1,21.4c-3.1,0-5.5,2.5-5.5,5.5v44.1c0,3.1,2.5,5.5,5.5,5.5c3.1,0,5.5-2.5,5.5-5.5V27
			C35.7,23.9,33.2,21.4,30.1,21.4z M30.1,74.9c-2,0-3.7-1.6-3.7-3.7c0-2,1.6-3.7,3.7-3.7s3.7,1.6,3.7,3.7
			C33.8,73.3,32.2,74.9,30.1,74.9z M30.1,30.7c-2,0-3.7-1.7-3.7-3.7c0-2,1.6-3.7,3.7-3.7s3.7,1.6,3.7,3.7
			C33.8,29,32.2,30.7,30.1,30.7z"/>
		<path class="st4" d="M26.2,23.2c-2.2,2.2-2.2,5.7,0,7.8l22.1,22.1c2.2,2.2,5.7,2.2,7.8,0c2.2-2.2,2.2-5.7,0-7.8L34.1,23.2
			C31.9,21,28.4,21,26.2,23.2z M54.9,51.9c-1.4,1.4-3.8,1.4-5.2,0c-1.4-1.4-1.4-3.8,0-5.2c1.4-1.4,3.8-1.4,5.2,0
			C56.4,48.1,56.4,50.4,54.9,51.9z M32.8,29.7c-1.4,1.4-3.8,1.4-5.2,0c-1.4-1.4-1.4-3.8,0-5.2c1.4-1.4,3.8-1.4,5.2,0
			C34.2,26,34.2,28.3,32.8,29.7z"/>
		<path class="st4" d="M78.5,23.2c-2.2-2.2-5.7-2.2-7.8,0L48.5,45.3c-2.2,2.2-2.2,5.7,0,7.8c2.2,2.2,5.7,2.2,7.8,0L78.5,31
			C80.6,28.9,80.6,25.3,78.5,23.2z M49.7,51.9c-1.4-1.4-1.4-3.8,0-5.2c1.4-1.4,3.8-1.4,5.2,0c1.4,1.4,1.4,3.8,0,5.2
			C53.5,53.3,51.2,53.3,49.7,51.9z M71.9,29.7c-1.4-1.4-1.4-3.8,0-5.2c1.4-1.4,3.8-1.4,5.2,0c1.4,1.4,1.4,3.8,0,5.2
			C75.7,31.2,73.3,31.2,71.9,29.7z"/>
		<path class="st4" d="M74.5,21.6c-3.1,0-5.5,2.5-5.5,5.5v44.1c0,3.1,2.5,5.5,5.5,5.5c3.1,0,5.5-2.5,5.5-5.5V27.1
			C80.1,24,77.6,21.6,74.5,21.6z M74.5,75c-2,0-3.7-1.6-3.7-3.7s1.6-3.7,3.7-3.7c2,0,3.7,1.6,3.7,3.7S76.6,75,74.5,75z M74.5,30.8
			c-2,0-3.7-1.6-3.7-3.7c0-2,1.6-3.7,3.7-3.7c2,0,3.7,1.6,3.7,3.7C78.2,29.2,76.6,30.8,74.5,30.8z"/>
	</g>
	<g>
		<g>
			<path class="st0" d="M144.5,33h-36.6c-3.3,0-5.9-2.7-5.9-5.9c0-3.3,2.7-5.9,5.9-5.9h36.6c3.3,0,6,2.7,6,5.9
				C150.5,30.4,147.8,33,144.5,33z M107.9,22c-2.8,0-5.1,2.3-5.1,5.1s2.3,5.1,5.1,5.1h36.6c2.8,0,5.1-2.3,5.1-5.1s-2.3-5.1-5.1-5.1
				H107.9z M144.5,31.2c-2.3,0-4.1-1.8-4.1-4.1c0-2.3,1.8-4.1,4.1-4.1c2.3,0,4.1,1.8,4.1,4.1C148.6,29.4,146.7,31.2,144.5,31.2z
				 M144.5,23.8c-1.8,0-3.3,1.5-3.3,3.3c0,1.8,1.5,3.3,3.3,3.3c1.8,0,3.3-1.5,3.3-3.3C147.7,25.3,146.3,23.8,144.5,23.8z
				 M107.7,31.2c-2.3,0-4.1-1.8-4.1-4.1c0-2.3,1.8-4.1,4.1-4.1c2.3,0,4.1,1.8,4.1,4.1C111.8,29.4,110,31.2,107.7,31.2z M107.7,23.8
				c-1.8,0-3.3,1.5-3.3,3.3c0,1.8,1.5,3.3,3.3,3.3c1.8,0,3.3-1.5,3.3-3.3C111,25.3,109.5,23.8,107.7,23.8z"/>
		</g>
	</g>
	<g>
		<g>
			<path class="st0" d="M144.5,77.1h-36.6c-3.3,0-5.9-2.7-5.9-5.9c0-3.3,2.7-6,5.9-6h36.6c3.3,0,6,2.7,6,6
				C150.5,74.5,147.8,77.1,144.5,77.1z M107.9,66c-2.8,0-5.1,2.3-5.1,5.1c0,2.8,2.3,5.1,5.1,5.1h36.6c2.8,0,5.1-2.3,5.1-5.1
				c0-2.8-2.3-5.1-5.1-5.1H107.9z M144.5,75.3c-2.3,0-4.1-1.8-4.1-4.1c0-2.3,1.8-4.1,4.1-4.1c2.3,0,4.1,1.8,4.1,4.1
				C148.6,73.4,146.7,75.3,144.5,75.3z M144.5,67.9c-1.8,0-3.3,1.5-3.3,3.3c0,1.8,1.5,3.3,3.3,3.3c1.8,0,3.3-1.5,3.3-3.3
				C147.7,69.4,146.3,67.9,144.5,67.9z M107.7,75.3c-2.3,0-4.1-1.8-4.1-4.1c0-2.3,1.8-4.1,4.1-4.1c2.3,0,4.1,1.8,4.1,4.1
				C111.8,73.4,110,75.3,107.7,75.3z M107.7,67.9c-1.8,0-3.3,1.5-3.3,3.3c0,1.8,1.5,3.3,3.3,3.3c1.8,0,3.3-1.5,3.3-3.3
				C111,69.4,109.5,67.9,107.7,67.9z"/>
		</g>
	</g>
	<g>
		<g>
			<path class="st0" d="M107.9,77.1c-1.6,0-3.1-0.6-4.2-1.7c-2.3-2.3-2.3-6.1,0-8.4l36.6-44.1c1.2-1.2,2.6-1.8,4.2-1.8
				c1.6,0,3.1,0.6,4.2,1.7c1.1,1.1,1.7,2.6,1.7,4.2c0,1.6-0.6,3.1-1.7,4.2l-36.6,44C111,76.5,109.5,77.1,107.9,77.1z M144.5,22
				c-1.4,0-2.7,0.5-3.6,1.5l-36.6,44c-2,2-2,5.3,0,7.3c1,1,2.3,1.5,3.6,1.5c1.4,0,2.7-0.5,3.6-1.5l36.6-44.1c1-1,1.5-2.3,1.5-3.7
				s-0.5-2.7-1.5-3.6C147.2,22.5,145.9,22,144.5,22z M107.8,75.4c-1.1,0-2.1-0.4-2.9-1.2c-0.8-0.8-1.2-1.8-1.2-2.9
				c0-1.1,0.4-2.1,1.2-2.9c0.8-0.8,1.8-1.2,2.9-1.2c1.1,0,2.1,0.4,2.9,1.2c0.8,0.8,1.2,1.8,1.2,2.9c0,1.1-0.4,2.1-1.2,2.9
				C109.9,75,108.9,75.4,107.8,75.4z M107.8,68c-0.9,0-1.7,0.3-2.3,1c-0.6,0.6-1,1.4-1,2.3c0,0.9,0.3,1.7,1,2.3
				c1.2,1.2,3.4,1.2,4.6,0c0.6-0.6,1-1.4,1-2.3s-0.3-1.7-1-2.3C109.5,68.4,108.7,68,107.8,68z M144.5,31.2c-1.1,0-2.1-0.4-2.9-1.2
				c-1.6-1.6-1.6-4.2,0-5.8c1.5-1.5,4.2-1.5,5.8,0c1.6,1.6,1.6,4.2,0,5.8C146.6,30.8,145.6,31.2,144.5,31.2z M144.5,23.9
				c-0.9,0-1.7,0.3-2.3,1c-1.3,1.3-1.3,3.3,0,4.6c1.2,1.2,3.4,1.2,4.6,0c1.3-1.3,1.3-3.3,0-4.6C146.2,24.2,145.4,23.9,144.5,23.9z"
				/>
		</g>
	</g>
	<g>
		<g>
			<path class="st0" d="M30.1,76.9c-3.2,0-5.8-2.6-5.8-5.8V27c0-3.2,2.6-5.8,5.8-5.8s5.8,2.6,5.8,5.8v44.1
				C35.9,74.3,33.3,76.9,30.1,76.9z M30.1,21.7c-2.9,0-5.3,2.4-5.3,5.3v44.1c0,2.9,2.4,5.3,5.3,5.3c2.9,0,5.3-2.4,5.3-5.3V27
				C35.4,24.1,33,21.7,30.1,21.7z M30.1,75.2c-2.2,0-3.9-1.8-3.9-4c0-2.2,1.8-4,3.9-4s4,1.8,4,4C34.1,73.4,32.3,75.2,30.1,75.2z
				 M30.1,67.8c-1.9,0-3.4,1.5-3.4,3.4c0,1.9,1.5,3.4,3.4,3.4c1.9,0,3.4-1.5,3.4-3.4C33.5,69.3,32,67.8,30.1,67.8z M30.1,31
				c-2.2,0-3.9-1.8-3.9-4c0-2.2,1.8-3.9,3.9-3.9s4,1.8,4,3.9C34.1,29.2,32.3,31,30.1,31z M30.1,23.6c-1.9,0-3.4,1.5-3.4,3.4
				c0,1.9,1.5,3.4,3.4,3.4c1.9,0,3.4-1.5,3.4-3.4C33.5,25.1,32,23.6,30.1,23.6z"/>
		</g>
	</g>
	<g>
		<g>
			<path class="st0" d="M52.2,55c-1.6,0-3-0.6-4.1-1.7L26,31.2c-1.1-1.1-1.7-2.6-1.7-4.1c0-1.6,0.6-3,1.7-4.1
				c1.1-1.1,2.6-1.7,4.1-1.7c1.6,0,3,0.6,4.1,1.7l22.1,22.1c1.1,1.1,1.7,2.6,1.7,4.1c0,1.6-0.6,3-1.7,4.1C55.2,54.4,53.8,55,52.2,55
				z M30.1,21.8c-1.4,0-2.7,0.5-3.7,1.5c-1,1-1.5,2.3-1.5,3.7c0,1.4,0.5,2.7,1.5,3.7l22.1,22.1c1,1,2.3,1.5,3.7,1.5
				c1.4,0,2.7-0.5,3.7-1.5c1-1,1.5-2.3,1.5-3.7c0-1.4-0.5-2.7-1.5-3.7L33.9,23.4C32.9,22.4,31.5,21.8,30.1,21.8z M52.3,53.2
				c-1.1,0-2-0.4-2.8-1.2c-1.5-1.5-1.5-4,0-5.6c0.7-0.7,1.7-1.2,2.8-1.2c1.1,0,2,0.4,2.8,1.2c1.5,1.5,1.5,4,0,5.6
				C54.4,52.8,53.4,53.2,52.3,53.2z M52.3,45.9c-0.9,0-1.8,0.4-2.4,1c-1.3,1.3-1.3,3.5,0,4.8c0.6,0.6,1.5,1,2.4,1
				c0.9,0,1.8-0.4,2.4-1c1.3-1.3,1.3-3.5,0-4.8C54.1,46.2,53.2,45.9,52.3,45.9z M30.2,31.1c-1.1,0-2-0.4-2.8-1.2
				c-1.5-1.5-1.5-4,0-5.6c0.7-0.7,1.7-1.2,2.8-1.2c1.1,0,2,0.4,2.8,1.2c1.5,1.5,1.5,4,0,5.6C32.2,30.7,31.2,31.1,30.2,31.1z
				 M30.2,23.7c-0.9,0-1.8,0.4-2.4,1c-1.3,1.3-1.3,3.5,0,4.8c0.6,0.6,1.5,1,2.4,1c0.9,0,1.8-0.4,2.4-1c1.3-1.3,1.3-3.5,0-4.8
				C31.9,24.1,31.1,23.7,30.2,23.7z"/>
		</g>
	</g>
	<g>
		<g>
			<path class="st0" d="M52.5,55c-1.6,0-3-0.6-4.1-1.7c-1.1-1.1-1.7-2.6-1.7-4.1c0-1.6,0.6-3,1.7-4.1L70.4,23
				c1.1-1.1,2.6-1.7,4.1-1.7s3,0.6,4.1,1.7c1.1,1.1,1.7,2.6,1.7,4.1c0,1.6-0.6,3-1.7,4.1L56.6,53.3C55.5,54.4,54,55,52.5,55z
				 M74.5,21.8c-1.4,0-2.7,0.5-3.7,1.5L48.7,45.4c-1,1-1.5,2.3-1.5,3.7c0,1.4,0.5,2.7,1.5,3.7c1,1,2.3,1.5,3.7,1.5
				c1.4,0,2.7-0.5,3.7-1.5l22.1-22.1c1-1,1.5-2.3,1.5-3.7c0-1.4-0.5-2.7-1.5-3.7C77.3,22.4,75.9,21.8,74.5,21.8z M52.4,53.2
				c-1.1,0-2-0.4-2.8-1.2c-1.5-1.5-1.5-4,0-5.6c0.7-0.7,1.7-1.2,2.8-1.2c1.1,0,2,0.4,2.8,1.2c1.5,1.5,1.5,4,0,5.6
				C54.4,52.8,53.4,53.2,52.4,53.2z M52.4,45.9c-0.9,0-1.8,0.4-2.4,1c-1.3,1.3-1.3,3.5,0,4.8c0.6,0.6,1.5,1,2.4,1
				c0.9,0,1.8-0.4,2.4-1c1.3-1.3,1.3-3.5,0-4.8C54.1,46.2,53.3,45.9,52.4,45.9z M74.5,31.1c-1.1,0-2-0.4-2.8-1.2
				c-1.5-1.5-1.5-4,0-5.6c0.7-0.7,1.7-1.2,2.8-1.2c1.1,0,2,0.4,2.8,1.2c1.5,1.5,1.5,4,0,5.6C76.6,30.7,75.6,31.1,74.5,31.1z
				 M74.5,23.7c-0.9,0-1.8,0.4-2.4,1c-1.3,1.3-1.3,3.5,0,4.8c0.6,0.6,1.5,1,2.4,1c0.9,0,1.8-0.4,2.4-1c1.3-1.3,1.3-3.5,0-4.8
				C76.3,24.1,75.4,23.7,74.5,23.7z"/>
		</g>
	</g>
	<g>
		<g>
			<path class="st0" d="M74.5,77c-3.2,0-5.8-2.6-5.8-5.8V27.1c0-3.2,2.6-5.8,5.8-5.8c3.2,0,5.8,2.6,5.8,5.8v44.1
				C80.3,74.4,77.7,77,74.5,77z M74.5,21.8c-2.9,0-5.3,2.4-5.3,5.3v44.1c0,2.9,2.4,5.3,5.3,5.3c2.9,0,5.3-2.4,5.3-5.3V27.1
				C79.8,24.2,77.4,21.8,74.5,21.8z M74.5,75.3c-2.2,0-4-1.8-4-4c0-2.2,1.8-4,4-4s4,1.8,4,4C78.5,73.5,76.7,75.3,74.5,75.3z
				 M74.5,67.9c-1.9,0-3.4,1.5-3.4,3.4c0,1.9,1.5,3.4,3.4,3.4c1.9,0,3.4-1.5,3.4-3.4C77.9,69.5,76.4,67.9,74.5,67.9z M74.5,31.1
				c-2.2,0-4-1.8-4-4c0-2.2,1.8-4,4-4s4,1.8,4,4C78.5,29.3,76.7,31.1,74.5,31.1z M74.5,23.7c-1.9,0-3.4,1.5-3.4,3.4
				c0,1.9,1.5,3.4,3.4,3.4c1.9,0,3.4-1.5,3.4-3.4C77.9,25.2,76.4,23.7,74.5,23.7z"/>
		</g>
	</g>
	<path class="st0" d="M126.2,98.6c-14.7,0-28.4-6.5-37.8-17.7C79.1,91.8,65.6,98,51.2,98C24.4,98,2.5,76.2,2.5,49.3
		c0-26.9,21.9-48.7,48.7-48.7c14.3,0,27.8,6.3,37.1,17.2C97.8,6.5,111.6,0,126.2,0c27.2,0,49.3,22.1,49.3,49.3
		C175.5,76.5,153.4,98.6,126.2,98.6z M88.4,79.5l0.3,0.4c9.3,11.3,22.9,17.8,37.5,17.8c26.7,0,48.4-21.7,48.4-48.4
		c0-26.7-21.7-48.4-48.4-48.4c-14.6,0-28.2,6.5-37.5,17.8l-0.3,0.4L88,18.7C78.9,7.7,65.5,1.4,51.2,1.4C24.9,1.4,3.4,22.9,3.4,49.3
		s21.5,47.9,47.9,47.9c14.2,0,27.6-6.3,36.8-17.3L88.4,79.5z"/>
</g>
</svg>
